<svg width="78" height="78" viewBox="0 0 78 78" fill="none" xmlns="http://www.w3.org/2000/svg">
<rect width="78" height="78" rx="9.23025" fill="url(#paint0_radial)"/>
<path d="M39.0016 25.041C36.0036 25.041 33.073 25.9005 30.5803 27.5106C28.0876 29.1207 26.1448 31.4092 24.9975 34.0868C23.8503 36.7644 23.5502 39.7107 24.135 42.5532C24.7199 45.3957 26.1635 48.0067 28.2833 50.056C30.4032 52.1053 33.1041 53.5008 36.0444 54.0663C38.9847 54.6317 42.0325 54.3415 44.8022 53.2324C47.5719 52.1233 49.9392 50.2452 51.6048 47.8354C53.2703 45.4257 54.1594 42.5926 54.1594 39.6944C54.1594 35.8081 52.5624 32.081 49.7197 29.3329C46.8771 26.5849 43.0217 25.041 39.0016 25.041ZM35.9758 44.4282H34.3874L32.3557 38.3662V44.4282H30.894V34.9607H32.5506L34.4995 41.3241V34.9607H35.9612L35.9758 44.4282ZM41.4962 36.3926H38.7725V38.9973H40.7653V40.4104H38.7725V44.4282H37.3108V34.9607H41.5108L41.4962 36.3926ZM47.1237 36.3926H45.5597V44.3999H44.098V36.3926H42.5291V34.9795H47.1383L47.1237 36.3926Z" fill="white"/>
<path d="M28.2246 38.9883H15.9902V40.4013H28.2246V38.9883Z" fill="white"/>
<path d="M30.5494 34.8005H17.6328V25.0928H19.0945V33.3874H30.5494V34.8005Z" fill="white"/>
<path d="M19.0945 54.3015H17.6328V44.5938H30.5494V46.0068H19.0945V54.3015Z" fill="white"/>
<path d="M20.4247 52.3086H16.3027V56.2934H20.4247V52.3086Z" fill="white"/>
<path d="M21.1403 57.0004H15.5566V51.6025H21.1403V57.0004ZM17.0184 55.5873H19.6786V53.0156H17.0184V55.5873Z" fill="white"/>
<path d="M16.8525 37.7021H12.7305V41.687H16.8525V37.7021Z" fill="white"/>
<path d="M17.5885 42.394H12V36.9961H17.5885V42.394ZM13.4617 40.9809H16.1269V38.4092H13.4617V40.9809Z" fill="white"/>
<path d="M20.4247 21.7061H16.3027V25.6909H20.4247V21.7061Z" fill="white"/>
<path d="M21.1403 26.3979H15.5566V21H21.1403V26.3979ZM17.0184 24.9848H19.6786V22.4131H17.0184V24.9848Z" fill="white"/>
<path d="M62.0157 38.9883H49.7812V40.4013H62.0157V38.9883Z" fill="white"/>
<path d="M60.3677 34.8005H47.4512V33.3874H58.906V25.0928H60.3677V34.8005Z" fill="white"/>
<path d="M60.3677 54.3015H58.906V46.0068H47.4512V44.5938H60.3677V54.3015Z" fill="white"/>
<path d="M57.5753 56.2939H61.6973V52.3091H57.5753V56.2939Z" fill="white"/>
<path d="M62.4294 57.0004H56.8457V51.6025H62.4294V57.0004ZM58.3074 55.5873H60.9677V53.0156H58.3074V55.5873Z" fill="white"/>
<path d="M61.1515 41.6924H65.2734V37.7076H61.1515V41.6924Z" fill="white"/>
<path d="M66.0046 42.394H60.416V36.9961H66.0046V42.394ZM61.8777 40.9809H64.5429V38.4092H61.8777V40.9809Z" fill="white"/>
<path d="M57.5753 25.6914H61.6973V21.7066H57.5753V25.6914Z" fill="white"/>
<path d="M62.4294 26.3979H56.8457V21H62.4294V26.3979ZM58.3074 24.9848H60.9677V22.4131H58.3074V24.9848Z" fill="white"/>
<defs>
<radialGradient id="paint0_radial" cx="0" cy="0" r="1" gradientUnits="userSpaceOnUse" gradientTransform="translate(-21.5674 -8.95227) rotate(40.6305) scale(147.687 854.418)">
<stop stop-color="#FFD873"/>
<stop offset="0.385417" stop-color="#FF2156"/>
<stop offset="0.973958" stop-color="#AD00FF"/>
</radialGradient>
</defs>
</svg>
