<svg width="78" height="78" viewBox="0 0 78 78" fill="none" xmlns="http://www.w3.org/2000/svg">
<rect width="78" height="78" rx="9.23025" fill="url(#paint0_radial)"/>
<path d="M21.3855 46.3653V44.3399L23.1719 43.8695H23.2012C23.8779 43.7007 24.2139 43.937 24.2117 44.5739C24.2348 44.8775 24.145 45.1789 23.9594 45.4205C23.7738 45.6621 23.5055 45.827 23.2057 45.8837L21.3878 46.3608L21.3855 46.3653ZM21.4013 41.7878V39.8456L23.1042 39.3955H23.1381C23.4741 39.3123 23.7177 39.3325 23.8734 39.4541C23.9589 39.5386 24.0238 39.6416 24.0629 39.7552C24.102 39.8688 24.1143 39.9898 24.0989 40.109C24.1183 40.3953 24.0309 40.6788 23.8536 40.9048C23.6762 41.1308 23.4214 41.2834 23.1381 41.3332L21.4013 41.7923V41.7878ZM24.2072 36.3506L24.126 36.3709L18.0361 37.9732L18 49.9998L24.1846 48.3705C25.2372 48.1286 26.1801 47.5463 26.8664 46.7141C27.5153 45.887 27.8572 44.8612 27.8341 43.811C27.8341 43.0893 27.7085 42.5777 27.4574 42.2762C27.1893 41.9662 26.8233 41.7566 26.4198 41.6821C26.7518 41.3311 27.0137 40.9202 27.1912 40.4713C27.3942 39.9539 27.4938 39.4019 27.4844 38.8464C27.4844 37.7752 27.195 37.025 26.6161 36.5959C26.0372 36.1668 25.2327 36.0858 24.2027 36.3529" fill="white"/>
<path d="M32.3926 39.8321V37.3116L33.782 36.9447H33.8068C34.5286 36.7647 34.888 37.0933 34.885 37.9304C34.8819 38.7676 34.4842 39.2927 33.6918 39.5058L32.3858 39.8501L32.3926 39.8321ZM34.6887 33.6095L34.6008 33.632L28.8447 35.1286L28.8086 47.153L32.3633 46.2167L32.3746 42.931L32.8866 42.796H32.9046C33.0315 42.7467 33.1724 42.7467 33.2993 42.796C33.4121 42.8788 33.4977 42.9932 33.5452 43.1246L34.6301 45.6181L38.3336 44.6437L37.1021 41.7585C36.9978 41.4866 36.8149 41.2516 36.5766 41.0834C37.1407 40.5609 37.6067 39.9421 37.9525 39.256C38.2917 38.5702 38.4795 37.8197 38.5032 37.0553C38.5269 36.2908 38.386 35.5302 38.09 34.8248C37.8382 34.2664 37.3764 33.8291 36.8044 33.6073C36.245 33.3822 35.5413 33.3822 34.6865 33.6073" fill="white"/>
<path d="M45.226 30.6345L45.0591 30.6773C43.0292 31.2099 41.5007 32.1409 40.4737 33.4702C39.4467 34.7994 38.9294 36.4836 38.9219 38.5225C38.9219 40.5149 39.4384 41.9027 40.4714 42.6859C41.4819 43.4511 42.9577 43.5913 44.899 43.1067L45.0546 43.0662C46.2376 42.7709 47.3581 42.2672 48.3635 41.5787L48.3748 38.0702C47.9025 38.4305 47.3982 38.7469 46.8681 39.0154C46.3715 39.2653 45.8498 39.4622 45.3118 39.6027L45.2351 39.623C44.4005 39.83 43.7464 39.794 43.2728 39.515C42.7991 39.2359 42.5555 38.5878 42.542 37.5705C42.542 36.5383 42.7788 35.7454 43.2525 35.1918C43.7937 34.5952 44.5081 34.1822 45.296 34.0103L45.3975 33.9833C45.8744 33.8604 46.3642 33.7939 46.8568 33.7852C47.3601 33.7824 47.8619 33.8383 48.3522 33.9518V30.459C47.8562 30.3751 47.3525 30.3457 46.85 30.3712C46.2975 30.4047 45.7498 30.4929 45.2148 30.6345" fill="white"/>
<path d="M59.7402 27L55.7231 28.0577L52.933 32.597L52.9443 28.7891L49.3896 29.7231L49.3535 41.7497L52.9082 40.8135L52.9172 37.5098L53.8488 36.0515L56.2328 39.9381L60.0018 38.9478L56.0366 32.9368L59.7402 27Z" fill="white"/>
<defs>
<radialGradient id="paint0_radial" cx="0" cy="0" r="1" gradientUnits="userSpaceOnUse" gradientTransform="translate(-21.5674 -8.95227) rotate(40.6305) scale(147.687 854.418)">
<stop stop-color="#FFD873"/>
<stop offset="0.385417" stop-color="#FF2156"/>
<stop offset="0.973958" stop-color="#AD00FF"/>
</radialGradient>
</defs>
</svg>
