<svg width="79" height="78" viewBox="0 0 79 78" fill="none" xmlns="http://www.w3.org/2000/svg">
<rect width="79" height="78" rx="9.23025" fill="url(#paint0_radial)"/>
<path d="M50.5784 30.5143L45.5744 25.5103C44.6073 24.5432 43.2958 24 41.9282 24H34.1011C32.1499 24 30.3156 24.7599 28.9359 26.1395L28.524 26.5514L28.4973 26.578H18.2891C17.5772 26.578 17 27.1552 17 27.8671V41.6171C17 42.329 17.5772 42.9062 18.2891 42.9062H24.7161L27.776 45.9661C28.0178 46.2078 28.3456 46.3437 28.6875 46.3437H29.8547C29.4227 45.675 29.1446 44.928 29.0357 44.1461C28.072 43.8326 27.2048 43.2538 26.5369 42.4577C24.5952 40.1435 24.8982 36.6812 27.2122 34.7394L32.1117 30.6284H41.8943C42.2361 30.6284 42.5641 30.7641 42.8058 31.006L46.405 34.6051C47.561 35.7611 49.4776 35.7858 50.6138 34.6103C51.7175 33.4684 51.7056 31.6416 50.5784 30.5143V30.5143Z" fill="white"/>
<path d="M61.0005 30.5312C61.0005 29.8192 60.4233 29.2421 59.7114 29.2422H52.8823C54.5305 31.3967 54.3714 34.4998 52.4019 36.4694C51.3639 37.5074 49.9827 38.079 48.5128 38.079C47.0429 38.079 45.6617 37.5074 44.6238 36.4694L41.361 33.2066H32.8093L31.7967 34.0562L28.5264 36.8004C27.2993 37.83 27.1392 39.6594 28.1689 40.8865C29.1985 42.1136 31.0279 42.2737 32.255 41.244C31.0279 42.2737 30.8679 44.1031 31.8975 45.3302C32.9271 46.5573 34.7566 46.7173 35.9837 45.6877C34.7566 46.7173 34.5966 48.5468 35.6262 49.7739C36.6558 51.001 38.4852 51.161 39.7123 50.1314L41.9953 48.2157L41.6873 48.4741C40.4602 49.5038 40.3002 51.3332 41.3298 52.5603C42.3595 53.7874 44.1889 53.9474 45.416 52.9178L54.1725 45.5701H59.7116C60.4235 45.5701 61.0007 44.993 61.0006 44.2811L61.0005 30.5312Z" fill="white"/>
<defs>
<radialGradient id="paint0_radial" cx="0" cy="0" r="1" gradientUnits="userSpaceOnUse" gradientTransform="translate(-21.8439 -8.95227) rotate(40.2702) scale(148.78 859.012)">
<stop stop-color="#FFD873"/>
<stop offset="0.385417" stop-color="#FF2156"/>
<stop offset="0.973958" stop-color="#AD00FF"/>
</radialGradient>
</defs>
</svg>
