<svg width="79" height="78" viewBox="0 0 79 78" fill="none" xmlns="http://www.w3.org/2000/svg">
<rect width="79" height="78" rx="9.23025" fill="url(#paint0_radial)"/>
<path d="M22.4375 40.4531V55.0781C22.4375 56.4236 23.5319 57.5156 24.875 57.5156H37.0625V40.4531H22.4375Z" fill="white"/>
<path d="M56.5625 30.7031H48.8503C49.4036 30.3253 49.8789 29.9499 50.2104 29.6135C52.1774 27.6367 52.1774 24.4192 50.2104 22.4424C48.2994 20.5168 44.9698 20.5216 43.0612 22.4424C42.0033 23.5027 39.2002 27.8195 39.5878 30.7031H39.4123C39.7974 27.8195 36.9943 23.5027 35.9388 22.4424C34.0278 20.5216 30.6982 20.5216 28.7896 22.4424C26.825 24.4192 26.825 27.6367 28.7872 29.6135C29.1211 29.9499 29.5964 30.3253 30.1498 30.7031H22.4375C21.0944 30.7031 20 31.7975 20 33.1406V36.7968C20 37.4696 20.546 38.0156 21.2188 38.0156H37.0625V33.1406H41.9375V38.0156H57.7812C58.454 38.0156 59 37.4696 59 36.7968V33.1406C59 31.7975 57.908 30.7031 56.5625 30.7031ZM36.9187 30.6226C36.9187 30.6226 36.8163 30.7031 36.4678 30.7031C34.7834 30.7031 31.5684 28.953 30.5178 27.8951C29.4965 26.8665 29.4965 25.1895 30.5178 24.1608C31.0126 23.6636 31.6683 23.3906 32.3654 23.3906C33.0601 23.3906 33.7158 23.6636 34.2106 24.1608C35.8535 25.8135 37.4866 30.0352 36.9187 30.6226ZM42.5298 30.7031C42.1837 30.7031 42.0813 30.6251 42.0813 30.6226C41.5134 30.0352 43.1465 25.8135 44.7894 24.1608C45.7717 23.1688 47.4901 23.1639 48.4822 24.1608C49.5059 25.1895 49.5059 26.8665 48.4822 27.8951C47.4316 28.953 44.2166 30.7031 42.5298 30.7031Z" fill="white"/>
<path d="M41.9375 40.4531V57.5156H54.125C55.4705 57.5156 56.5625 56.4236 56.5625 55.0781V40.4531H41.9375Z" fill="white"/>
<defs>
<radialGradient id="paint0_radial" cx="0" cy="0" r="1" gradientUnits="userSpaceOnUse" gradientTransform="translate(-21.8439 -8.95227) rotate(40.2702) scale(148.78 859.012)">
<stop stop-color="#FFD873"/>
<stop offset="0.385417" stop-color="#FF2156"/>
<stop offset="0.973958" stop-color="#AD00FF"/>
</radialGradient>
</defs>
</svg>
