<svg width="145" height="140" viewBox="0 0 145 140" fill="none" xmlns="http://www.w3.org/2000/svg">
<g clip-path="url(#clip0)">
<path d="M50.6949 70C50.703 63.1554 52.9251 56.4952 57.0323 51.0052C61.1395 45.5153 66.9136 41.4873 73.5 39.5175C70.4806 38.5386 67.328 38.0268 64.1525 38C55.6252 38 47.447 41.3714 41.4173 47.3726C35.3875 53.3737 32 61.5131 32 70C32 78.4869 35.3875 86.6263 41.4173 92.6274C47.447 98.6286 55.6252 102 64.1525 102C67.3253 101.942 70.4732 101.431 73.5 100.482C66.9192 98.5034 61.151 94.473 57.0453 88.9851C52.9396 83.4973 50.7135 76.8421 50.6949 70Z" fill="#FFB76E"/>
<path d="M82.5838 38C79.4087 38.0319 76.257 38.5436 73.2363 39.5175C79.8227 41.4873 85.5968 45.5153 89.704 51.0052C93.8113 56.4952 96.0334 63.1554 96.0414 70C96.0228 76.8421 93.7967 83.4973 89.691 88.9851C85.5853 94.473 79.8171 98.5034 73.2363 100.482C76.2646 101.425 79.4116 101.936 82.5838 102C91.1112 102 99.2893 98.6286 105.319 92.6274C111.349 86.6263 114.736 78.4869 114.736 70C114.736 61.5131 111.349 53.3737 105.319 47.3726C99.2893 41.3714 91.1112 38 82.5838 38Z" fill="#B905E7"/>
<path d="M96.3036 70.003C96.2955 63.1583 94.0734 56.4981 89.9662 51.0082C85.8589 45.5182 80.0848 41.4903 73.4985 39.5205C66.9121 41.4903 61.138 45.5182 57.0308 51.0082C52.9235 56.4981 50.7014 63.1583 50.6934 70.003C50.712 76.845 52.9381 83.5002 57.0438 88.9881C61.1495 94.476 66.9176 98.5064 73.4985 100.485C80.0793 98.5064 85.8474 94.476 89.9531 88.9881C94.0588 83.5002 96.285 76.845 96.3036 70.003Z" fill="#FF3259"/>
</g>
<rect width="145" height="140" rx="34" fill="url(#paint0_radial)" fill-opacity="0.2"/>
<defs>
<radialGradient id="paint0_radial" cx="0" cy="0" r="1" gradientUnits="userSpaceOnUse" gradientTransform="translate(-40.0932 -16.0682) rotate(39.6397) scale(270.572 1556.09)">
<stop stop-color="#FFD873"/>
<stop offset="0.385417" stop-color="#FF2156"/>
<stop offset="0.973958" stop-color="#AD00FF"/>
</radialGradient>
<clipPath id="clip0">
<rect width="83" height="64" fill="white" transform="translate(32 38)"/>
</clipPath>
</defs>
</svg>
