<svg width="78" height="78" viewBox="0 0 78 78" fill="none" xmlns="http://www.w3.org/2000/svg">
<rect width="78" height="78" rx="9.23025" fill="url(#paint0_radial)"/>
<path d="M22.8777 33.7676C22.6361 31.5393 20.7439 29.7988 18.4521 29.7988C15.9972 29.7988 14 31.7961 14 34.2509C14 36.7057 15.9972 38.703 18.4521 38.703C20.0046 38.703 21.3734 37.9038 22.1703 36.6956L25.4418 37.4831C25.571 36.4692 25.8107 35.4894 26.1477 34.5556L22.8777 33.7676Z" fill="white"/>
<path d="M49.7602 30.3348L52.4936 27.4722C53.2154 27.843 54.0321 28.0535 54.8979 28.0535C57.8087 28.0535 60.1772 25.6851 60.1772 22.7738C60.1772 19.8626 57.8087 17.4941 54.8979 17.4941C51.9866 17.4941 49.6182 19.8626 49.6182 22.7738C49.6182 23.7263 49.8727 24.6193 50.3155 25.3917L47.582 28.2543C48.3812 28.8675 49.1116 29.5652 49.7602 30.3348V30.3348Z" fill="white"/>
<path d="M28.8699 22.0256C29.5111 21.1847 29.8928 20.1365 29.8928 18.9999C29.8928 16.2432 27.6497 14 24.8925 14C22.1353 14 19.8926 16.2432 19.8926 18.9999C19.8926 21.7571 22.1353 24.0002 24.8925 24.0002C25.4217 24.0002 25.9314 23.917 26.4104 23.7641L30.0142 28.8718C30.766 28.2072 31.5897 27.6231 32.4729 27.1325L28.8699 22.0256Z" fill="white"/>
<path d="M28.382 47.9004L26.5894 49.693C25.7964 49.2498 24.884 48.9957 23.9132 48.9957C20.8786 48.9957 18.4102 51.4645 18.4102 54.4987C18.4102 57.5329 20.879 60.0018 23.9132 60.0018C26.9474 60.0018 29.4158 57.5329 29.4158 54.4987C29.4158 53.5279 29.1621 52.6155 28.7189 51.8225L30.5115 50.0299C29.7271 49.3992 29.0127 48.6848 28.382 47.9004V47.9004Z" fill="white"/>
<path d="M45.4549 55.743C44.3817 56.7166 43.707 58.1216 43.707 59.6811C43.707 62.6137 46.0926 64.9993 49.0252 64.9993C51.9575 64.9993 54.3431 62.6137 54.3431 59.6811C54.3431 56.7489 51.9575 54.3629 49.0252 54.3629C48.733 54.3629 48.4466 54.3878 48.1669 54.4333L46.5008 50.9766C45.6537 51.5073 44.7455 51.9489 43.7895 52.2882L45.4549 55.743Z" fill="white"/>
<path d="M58.6709 40.9434C57.1157 40.9434 55.7325 41.6939 54.8644 42.8515L52.7088 42.1375C52.4956 43.134 52.1753 44.0912 51.7598 44.9962L53.9158 45.7102C53.922 48.3273 56.0527 50.4545 58.6709 50.4545C61.2931 50.4545 63.4265 48.3211 63.4265 45.6989C63.4265 43.0768 61.2931 40.9434 58.6709 40.9434V40.9434Z" fill="white"/>
<path d="M39.1716 50.0707C45.1431 50.0707 50.0014 45.2124 50.0014 39.2409C50.0014 33.2694 45.1431 28.4111 39.1716 28.4111C33.2001 28.4111 28.3418 33.2694 28.3418 39.2409C28.3418 45.2124 33.2001 50.0707 39.1716 50.0707V50.0707ZM37.6654 33.5698V32.783C37.6654 31.9512 38.3397 31.2768 39.1716 31.2768C40.0031 31.2768 40.6774 31.9512 40.6774 32.783V33.2527H41.4128C42.2443 33.2527 42.9186 33.927 42.9186 34.7589C42.9186 35.5904 42.2443 36.2647 41.4128 36.2647H39.1716C38.7662 36.2647 38.4362 36.5947 38.4362 37.0001C38.4362 37.4055 38.7662 37.7351 39.1716 37.7351C39.4171 37.7351 39.6572 37.7596 39.8895 37.8048C41.6132 38.1409 42.9186 39.6615 42.9186 41.4821C42.9186 43.0129 41.9957 44.3311 40.6774 44.9124V45.6992C40.6774 46.5307 40.0031 47.205 39.1716 47.205C38.3397 47.205 37.6654 46.5307 37.6654 45.6992V45.2292H36.9304C36.0985 45.2292 35.4246 44.5549 35.4246 43.7233C35.4246 42.8918 36.0985 42.2175 36.9304 42.2175H39.1716C39.577 42.2175 39.9066 41.8876 39.9066 41.4821C39.9066 41.0767 39.577 40.7467 39.1716 40.7467C38.9257 40.7467 38.686 40.7222 38.4533 40.6771C36.7296 40.3409 35.4246 38.8203 35.4246 36.9997C35.4246 35.469 36.3475 34.1507 37.6654 33.5698V33.5698Z" fill="white"/>
<defs>
<radialGradient id="paint0_radial" cx="0" cy="0" r="1" gradientUnits="userSpaceOnUse" gradientTransform="translate(-21.5674 -8.95227) rotate(40.6305) scale(147.687 854.418)">
<stop stop-color="#FFD873"/>
<stop offset="0.385417" stop-color="#FF2156"/>
<stop offset="0.973958" stop-color="#AD00FF"/>
</radialGradient>
</defs>
</svg>
