<svg width="145" height="140" viewBox="0 0 145 140" fill="none" xmlns="http://www.w3.org/2000/svg">
<rect opacity="0.03" width="145" height="140" rx="34" fill="white"/>
<g clip-path="url(#clip0)">
<path d="M70.3776 73.8815C69.0998 72.789 67.6797 71.8822 66.1579 71.187C67.5381 69.9762 68.6468 68.4769 69.4089 66.7907C70.1709 65.1046 70.5686 63.271 70.5748 61.4144C70.5748 57.9906 69.2411 54.707 66.867 52.286C64.493 49.865 61.2731 48.5049 57.9156 48.5049C54.5546 48.5049 51.3306 49.8637 48.9503 52.2835C46.57 54.7034 45.2275 57.9869 45.217 61.4144C45.2233 63.271 45.6209 65.1046 46.383 66.7907C47.1451 68.4769 48.2538 69.9762 49.634 71.187C46.156 72.7813 43.2059 75.3698 41.1411 78.6389C39.0763 81.9081 37.9852 85.7176 38.0002 89.6062V96.0006H64.541L70.5748 89.6062C70.5605 83.9916 66.6143 77.9798 70.3776 73.8815Z" fill="#131925"/>
<path d="M95.2627 68.8136C96.7701 67.4978 97.9779 65.8626 98.8021 64.022C99.6262 62.1814 100.047 60.1796 100.035 58.1562C100.024 54.405 98.5582 50.8105 95.9572 48.158C93.3561 45.5055 89.8313 44.0106 86.1528 44C82.5018 44.0527 79.0172 45.5662 76.4501 48.2141C73.883 50.8621 72.4388 54.4326 72.4289 58.1562C72.4263 60.1859 72.8591 62.1916 73.6971 64.0326C74.535 65.8737 75.7578 67.5055 77.2796 68.8136C74.7125 70.0491 72.3977 71.7684 70.457 73.8809C72.7716 75.7658 74.6401 78.1582 75.9236 80.8805C77.2072 83.6028 77.8728 86.585 77.8711 89.6056V96H107.922V89.0023C107.927 84.7548 106.737 80.595 104.493 77.0165C102.249 73.438 99.0456 70.5911 95.2627 68.8136V68.8136Z" fill="#3A455A"/>
<path d="M70.3777 73.8799C66.6144 77.9782 64.5268 83.3867 64.5411 89.0013V95.999H77.8707V89.6046C77.8629 86.5774 77.1851 83.5911 75.8877 80.8683C74.5903 78.1456 72.7068 75.7567 70.3777 73.8799Z" fill="#283042"/>
</g>
<defs>
<clipPath id="clip0">
<rect width="70" height="52" fill="white" transform="translate(38 44)"/>
</clipPath>
</defs>
</svg>
