<svg width="61" height="61" viewBox="0 0 61 61" fill="none" xmlns="http://www.w3.org/2000/svg">
<rect width="60.2273" height="60.2273" rx="9.23025" fill="#1F2634"/>
<path d="M43.4187 22.236C43.0838 20.9909 42.1022 20.0094 40.8573 19.6742C38.5831 19.0519 29.486 19.0519 29.486 19.0519C29.486 19.0519 20.3892 19.0519 18.115 19.6506C16.8941 19.9855 15.8885 20.9911 15.5536 22.236C14.9551 24.51 14.9551 29.2261 14.9551 29.2261C14.9551 29.2261 14.9551 33.966 15.5536 36.2163C15.8888 37.4611 16.8701 38.4426 18.1152 38.7779C20.4132 39.4003 29.4863 39.4003 29.4863 39.4003C29.4863 39.4003 38.5831 39.4003 40.8573 38.8016C42.1024 38.4665 43.0838 37.4851 43.4191 36.2402C44.0174 33.966 44.0174 29.2501 44.0174 29.2501C44.0174 29.2501 44.0413 24.51 43.4187 22.236ZM26.5897 33.583V24.8692L34.1543 29.2261L26.5897 33.583Z" fill="white"/>
</svg>
