<svg width="62" height="61" viewBox="0 0 62 61" fill="none" xmlns="http://www.w3.org/2000/svg">
<rect x="0.886719" width="60.2273" height="60.2273" rx="9.23025" fill="#1F2634"/>
<path d="M22.2418 36.6319C29.0527 39.3141 34.8488 39.8365 41.417 35.6616C41.3689 35.7345 40.0696 37.6768 36.6529 38.6723C37.3747 39.6678 38.3613 40.8089 38.3613 40.8089C40.5508 40.8089 42.6923 40.1776 44.5449 38.9636C45.9886 37.9924 46.8066 36.3171 46.6382 34.569C46.3495 31.5826 45.6516 28.669 44.569 25.8769C43.1975 22.2349 39.9012 19.7098 36.0755 19.3456C35.7386 19.3213 35.498 19.3213 35.3537 19.3213L34.9687 19.7098C39.3719 20.9723 41.5615 22.939 41.6095 23.0118C34.8484 19.5641 26.8602 19.5156 20.0509 22.8662C20.0509 22.8662 22.2164 20.7053 27.0045 19.5641L26.7158 19.2727C26.2105 19.2727 25.7292 19.3213 25.224 19.3941C21.687 20.0011 18.7276 22.4534 17.4523 25.8282C16.3455 28.7418 15.6237 31.801 15.3591 34.9089C15.2147 36.5599 15.9847 38.1867 17.3321 39.1336C19.1125 40.3233 21.2299 40.9545 23.3713 40.9545C23.3713 40.9545 24.2375 39.8134 25.1037 38.7936C21.8555 37.8224 20.5322 35.8801 20.5081 35.8072L21.1194 36.1222C21.4848 36.3106 21.8595 36.4813 22.2418 36.6319ZM26.018 34.5204C24.4541 34.4718 23.2269 33.1365 23.2751 31.534C23.3232 30.0287 24.5263 28.8147 26.018 28.7661C27.582 28.8147 28.8091 30.15 28.761 31.7525C28.6888 33.2579 27.5098 34.4719 26.018 34.5204ZM35.8348 34.5204C34.2709 34.4718 33.0438 33.1365 33.0919 31.534C33.14 30.0287 34.3431 28.8147 35.8348 28.7661C37.3988 28.8147 38.6259 30.15 38.5778 31.7525C38.5297 33.2579 37.3266 34.4719 35.8348 34.5204Z" fill="white"/>
</svg>
