<svg width="62" height="62" viewBox="0 0 62 62" fill="none" xmlns="http://www.w3.org/2000/svg">
<rect x="0.886719" y="0.886719" width="60.2273" height="60.2273" rx="9.23025" fill="#1F2634"/>
<g clip-path="url(#clip0)">
<path d="M37.3225 17.7561L33.7299 17.7504C29.6937 17.7504 27.0853 20.4265 27.0853 24.5685V27.7121H23.4731C23.161 27.7121 22.9082 27.9651 22.9082 28.2773V32.832C22.9082 33.1442 23.1613 33.3969 23.4731 33.3969H27.0853V44.89C27.0853 45.2021 27.3381 45.4549 27.6502 45.4549H32.3632C32.6753 45.4549 32.9281 45.2018 32.9281 44.89V33.3969H37.1516C37.4637 33.3969 37.7165 33.1442 37.7165 32.832L37.7182 28.2773C37.7182 28.1274 37.6586 27.9839 37.5528 27.8778C37.447 27.7718 37.3029 27.7121 37.153 27.7121H32.9281V25.0472C32.9281 23.7664 33.2333 23.1161 34.9018 23.1161L37.3219 23.1153C37.6338 23.1153 37.8865 22.8622 37.8865 22.5504V18.321C37.8865 18.0095 37.6341 17.7567 37.3225 17.7561Z" fill="white"/>
</g>
<defs>
<clipPath id="clip0">
<rect width="27.7045" height="27.7045" fill="white" transform="translate(16.5449 17.7504)"/>
</clipPath>
</defs>
</svg>
