<svg width="61" height="62" viewBox="0 0 61 62" fill="none" xmlns="http://www.w3.org/2000/svg">
<rect y="0.886719" width="60.2273" height="60.2273" rx="9.23025" fill="#1F2634"/>
<g clip-path="url(#clip0)">
<path d="M36.5891 16.5458H23.6358C19.237 16.5458 15.6582 20.1248 15.6582 24.5236V37.4769C15.6582 41.876 19.237 45.4547 23.6358 45.4547H36.5891C40.9883 45.4547 44.5671 41.8758 44.5671 37.4769V24.5236C44.5673 20.1248 40.9883 16.5458 36.5891 16.5458ZM42.0024 37.4769C42.0024 40.4616 39.574 42.8898 36.5893 42.8898H23.6358C20.6513 42.89 18.2231 40.4616 18.2231 37.4769V24.5236C18.2231 21.5391 20.6513 19.1107 23.6358 19.1107H36.5891C39.5739 19.1107 42.0022 21.5391 42.0022 24.5236V37.4769H42.0024Z" fill="white"/>
<path d="M30.1112 23.5515C26.0037 23.5515 22.6621 26.8931 22.6621 31.0006C22.6621 35.108 26.0037 38.4494 30.1112 38.4494C34.2187 38.4494 37.5603 35.108 37.5603 31.0006C37.5603 26.8931 34.2187 23.5515 30.1112 23.5515ZM30.1112 35.8843C27.4182 35.8843 25.227 33.6935 25.227 31.0005C25.227 28.3073 27.418 26.1163 30.1112 26.1163C32.8044 26.1163 34.9954 28.3073 34.9954 31.0005C34.9954 33.6935 32.8042 35.8843 30.1112 35.8843Z" fill="white"/>
<path d="M37.8731 21.3766C37.379 21.3766 36.8935 21.5767 36.5445 21.9272C36.1938 22.2761 35.9922 22.7617 35.9922 23.2576C35.9922 23.7519 36.194 24.2374 36.5445 24.5879C36.8933 24.9368 37.379 25.1386 37.8731 25.1386C38.369 25.1386 38.853 24.9368 39.2035 24.5879C39.554 24.2374 39.7541 23.7518 39.7541 23.2576C39.7541 22.7617 39.554 22.2761 39.2035 21.9272C38.8547 21.5767 38.369 21.3766 37.8731 21.3766Z" fill="white"/>
</g>
<defs>
<clipPath id="clip0">
<rect width="28.9091" height="28.9091" fill="white" transform="translate(15.6582 16.5458)"/>
</clipPath>
</defs>
</svg>
