<svg width="197" height="254" viewBox="0 0 197 254" fill="none" xmlns="http://www.w3.org/2000/svg">
<path d="M20.1953 4.98039C21.5706 4.98039 22.6855 3.86549 22.6855 2.4902C22.6855 1.1149 21.5706 0 20.1953 0C18.82 0 17.7051 1.1149 17.7051 2.4902C17.7051 3.86549 18.82 4.98039 20.1953 4.98039Z" fill="#434A57"/>
<path d="M45.0976 4.98039C46.4729 4.98039 47.5878 3.86549 47.5878 2.4902C47.5878 1.1149 46.4729 0 45.0976 0C43.7223 0 42.6074 1.1149 42.6074 2.4902C42.6074 3.86549 43.7223 4.98039 45.0976 4.98039Z" fill="#434A57"/>
<path d="M70 4.98039C71.3753 4.98039 72.4902 3.86549 72.4902 2.4902C72.4902 1.1149 71.3753 0 70 0C68.6247 0 67.5098 1.1149 67.5098 2.4902C67.5098 3.86549 68.6247 4.98039 70 4.98039Z" fill="#434A57"/>
<path d="M94.9023 4.98039C96.2776 4.98039 97.3925 3.86549 97.3925 2.4902C97.3925 1.1149 96.2776 0 94.9023 0C93.527 0 92.4121 1.1149 92.4121 2.4902C92.4121 3.86549 93.527 4.98039 94.9023 4.98039Z" fill="#434A57"/>
<path d="M119.805 4.98039C121.18 4.98039 122.295 3.86549 122.295 2.4902C122.295 1.1149 121.18 0 119.805 0C118.429 0 117.314 1.1149 117.314 2.4902C117.314 3.86549 118.429 4.98039 119.805 4.98039Z" fill="#434A57"/>
<path d="M144.705 4.98039C146.08 4.98039 147.195 3.86549 147.195 2.4902C147.195 1.1149 146.08 0 144.705 0C143.33 0 142.215 1.1149 142.215 2.4902C142.215 3.86549 143.33 4.98039 144.705 4.98039Z" fill="#434A57"/>
<path d="M169.607 4.98039C170.983 4.98039 172.098 3.86549 172.098 2.4902C172.098 1.1149 170.983 0 169.607 0C168.232 0 167.117 1.1149 167.117 2.4902C167.117 3.86549 168.232 4.98039 169.607 4.98039Z" fill="#434A57"/>
<path d="M194.51 4.98039C195.885 4.98039 197 3.86549 197 2.4902C197 1.1149 195.885 0 194.51 0C193.134 0 192.02 1.1149 192.02 2.4902C192.02 3.86549 193.134 4.98039 194.51 4.98039Z" fill="#434A57"/>
<path d="M20.1953 29.8827C21.5706 29.8827 22.6855 28.7678 22.6855 27.3925C22.6855 26.0172 21.5706 24.9023 20.1953 24.9023C18.82 24.9023 17.7051 26.0172 17.7051 27.3925C17.7051 28.7678 18.82 29.8827 20.1953 29.8827Z" fill="#434A57"/>
<path d="M45.0976 29.8827C46.4729 29.8827 47.5878 28.7678 47.5878 27.3925C47.5878 26.0172 46.4729 24.9023 45.0976 24.9023C43.7223 24.9023 42.6074 26.0172 42.6074 27.3925C42.6074 28.7678 43.7223 29.8827 45.0976 29.8827Z" fill="#434A57"/>
<path d="M70 29.8827C71.3753 29.8827 72.4902 28.7678 72.4902 27.3925C72.4902 26.0172 71.3753 24.9023 70 24.9023C68.6247 24.9023 67.5098 26.0172 67.5098 27.3925C67.5098 28.7678 68.6247 29.8827 70 29.8827Z" fill="#434A57"/>
<path d="M94.9023 29.8827C96.2776 29.8827 97.3925 28.7678 97.3925 27.3925C97.3925 26.0172 96.2776 24.9023 94.9023 24.9023C93.527 24.9023 92.4121 26.0172 92.4121 27.3925C92.4121 28.7678 93.527 29.8827 94.9023 29.8827Z" fill="#434A57"/>
<path d="M119.805 29.8827C121.18 29.8827 122.295 28.7678 122.295 27.3925C122.295 26.0172 121.18 24.9023 119.805 24.9023C118.429 24.9023 117.314 26.0172 117.314 27.3925C117.314 28.7678 118.429 29.8827 119.805 29.8827Z" fill="#434A57"/>
<path d="M144.705 29.8827C146.08 29.8827 147.195 28.7678 147.195 27.3925C147.195 26.0172 146.08 24.9023 144.705 24.9023C143.33 24.9023 142.215 26.0172 142.215 27.3925C142.215 28.7678 143.33 29.8827 144.705 29.8827Z" fill="#434A57"/>
<path d="M169.607 29.8827C170.983 29.8827 172.098 28.7678 172.098 27.3925C172.098 26.0172 170.983 24.9023 169.607 24.9023C168.232 24.9023 167.117 26.0172 167.117 27.3925C167.117 28.7678 168.232 29.8827 169.607 29.8827Z" fill="#434A57"/>
<path d="M194.51 29.8827C195.885 29.8827 197 28.7678 197 27.3925C197 26.0172 195.885 24.9023 194.51 24.9023C193.134 24.9023 192.02 26.0172 192.02 27.3925C192.02 28.7678 193.134 29.8827 194.51 29.8827Z" fill="#434A57"/>
<path d="M20.1953 54.7841C21.5706 54.7841 22.6855 53.6692 22.6855 52.2939C22.6855 50.9186 21.5706 49.8037 20.1953 49.8037C18.82 49.8037 17.7051 50.9186 17.7051 52.2939C17.7051 53.6692 18.82 54.7841 20.1953 54.7841Z" fill="#434A57"/>
<path d="M45.0976 54.7841C46.4729 54.7841 47.5878 53.6692 47.5878 52.2939C47.5878 50.9186 46.4729 49.8037 45.0976 49.8037C43.7223 49.8037 42.6074 50.9186 42.6074 52.2939C42.6074 53.6692 43.7223 54.7841 45.0976 54.7841Z" fill="#434A57"/>
<path d="M70 54.7841C71.3753 54.7841 72.4902 53.6692 72.4902 52.2939C72.4902 50.9186 71.3753 49.8037 70 49.8037C68.6247 49.8037 67.5098 50.9186 67.5098 52.2939C67.5098 53.6692 68.6247 54.7841 70 54.7841Z" fill="#434A57"/>
<path d="M94.9023 54.7841C96.2776 54.7841 97.3925 53.6692 97.3925 52.2939C97.3925 50.9186 96.2776 49.8037 94.9023 49.8037C93.527 49.8037 92.4121 50.9186 92.4121 52.2939C92.4121 53.6692 93.527 54.7841 94.9023 54.7841Z" fill="#434A57"/>
<path d="M119.805 54.7841C121.18 54.7841 122.295 53.6692 122.295 52.2939C122.295 50.9186 121.18 49.8037 119.805 49.8037C118.429 49.8037 117.314 50.9186 117.314 52.2939C117.314 53.6692 118.429 54.7841 119.805 54.7841Z" fill="#434A57"/>
<path d="M144.705 54.7841C146.08 54.7841 147.195 53.6692 147.195 52.2939C147.195 50.9186 146.08 49.8037 144.705 49.8037C143.33 49.8037 142.215 50.9186 142.215 52.2939C142.215 53.6692 143.33 54.7841 144.705 54.7841Z" fill="#434A57"/>
<path d="M169.607 54.7841C170.983 54.7841 172.098 53.6692 172.098 52.2939C172.098 50.9186 170.983 49.8037 169.607 49.8037C168.232 49.8037 167.117 50.9186 167.117 52.2939C167.117 53.6692 168.232 54.7841 169.607 54.7841Z" fill="#434A57"/>
<path d="M194.51 54.7841C195.885 54.7841 197 53.6692 197 52.2939C197 50.9186 195.885 49.8037 194.51 49.8037C193.134 49.8037 192.02 50.9186 192.02 52.2939C192.02 53.6692 193.134 54.7841 194.51 54.7841Z" fill="#434A57"/>
<path d="M20.1953 79.6864C21.5706 79.6864 22.6855 78.5715 22.6855 77.1963C22.6855 75.821 21.5706 74.7061 20.1953 74.7061C18.82 74.7061 17.7051 75.821 17.7051 77.1963C17.7051 78.5715 18.82 79.6864 20.1953 79.6864Z" fill="#434A57"/>
<path d="M45.0976 79.6864C46.4729 79.6864 47.5878 78.5715 47.5878 77.1963C47.5878 75.821 46.4729 74.7061 45.0976 74.7061C43.7223 74.7061 42.6074 75.821 42.6074 77.1963C42.6074 78.5715 43.7223 79.6864 45.0976 79.6864Z" fill="#434A57"/>
<path d="M70 79.6864C71.3753 79.6864 72.4902 78.5715 72.4902 77.1963C72.4902 75.821 71.3753 74.7061 70 74.7061C68.6247 74.7061 67.5098 75.821 67.5098 77.1963C67.5098 78.5715 68.6247 79.6864 70 79.6864Z" fill="#434A57"/>
<path d="M94.9023 79.6864C96.2776 79.6864 97.3925 78.5715 97.3925 77.1963C97.3925 75.821 96.2776 74.7061 94.9023 74.7061C93.527 74.7061 92.4121 75.821 92.4121 77.1963C92.4121 78.5715 93.527 79.6864 94.9023 79.6864Z" fill="#434A57"/>
<path d="M119.805 79.6864C121.18 79.6864 122.295 78.5715 122.295 77.1963C122.295 75.821 121.18 74.7061 119.805 74.7061C118.429 74.7061 117.314 75.821 117.314 77.1963C117.314 78.5715 118.429 79.6864 119.805 79.6864Z" fill="#434A57"/>
<path d="M144.705 79.6864C146.08 79.6864 147.195 78.5715 147.195 77.1963C147.195 75.821 146.08 74.7061 144.705 74.7061C143.33 74.7061 142.215 75.821 142.215 77.1963C142.215 78.5715 143.33 79.6864 144.705 79.6864Z" fill="#434A57"/>
<path d="M169.607 79.6864C170.983 79.6864 172.098 78.5715 172.098 77.1963C172.098 75.821 170.983 74.7061 169.607 74.7061C168.232 74.7061 167.117 75.821 167.117 77.1963C167.117 78.5715 168.232 79.6864 169.607 79.6864Z" fill="#434A57"/>
<path d="M194.51 79.6864C195.885 79.6864 197 78.5715 197 77.1963C197 75.821 195.885 74.7061 194.51 74.7061C193.134 74.7061 192.02 75.821 192.02 77.1963C192.02 78.5715 193.134 79.6864 194.51 79.6864Z" fill="#434A57"/>
<path d="M20.1953 104.588C21.5706 104.588 22.6855 103.473 22.6855 102.098C22.6855 100.722 21.5706 99.6074 20.1953 99.6074C18.82 99.6074 17.7051 100.722 17.7051 102.098C17.7051 103.473 18.82 104.588 20.1953 104.588Z" fill="#434A57"/>
<path d="M45.0976 104.588C46.4729 104.588 47.5878 103.473 47.5878 102.098C47.5878 100.722 46.4729 99.6074 45.0976 99.6074C43.7223 99.6074 42.6074 100.722 42.6074 102.098C42.6074 103.473 43.7223 104.588 45.0976 104.588Z" fill="#434A57"/>
<path d="M70 104.588C71.3753 104.588 72.4902 103.473 72.4902 102.098C72.4902 100.722 71.3753 99.6074 70 99.6074C68.6247 99.6074 67.5098 100.722 67.5098 102.098C67.5098 103.473 68.6247 104.588 70 104.588Z" fill="#434A57"/>
<path d="M94.9023 104.588C96.2776 104.588 97.3925 103.473 97.3925 102.098C97.3925 100.722 96.2776 99.6074 94.9023 99.6074C93.527 99.6074 92.4121 100.722 92.4121 102.098C92.4121 103.473 93.527 104.588 94.9023 104.588Z" fill="#434A57"/>
<path d="M119.805 104.588C121.18 104.588 122.295 103.473 122.295 102.098C122.295 100.722 121.18 99.6074 119.805 99.6074C118.429 99.6074 117.314 100.722 117.314 102.098C117.314 103.473 118.429 104.588 119.805 104.588Z" fill="#434A57"/>
<path d="M144.705 104.588C146.08 104.588 147.195 103.473 147.195 102.098C147.195 100.722 146.08 99.6074 144.705 99.6074C143.33 99.6074 142.215 100.722 142.215 102.098C142.215 103.473 143.33 104.588 144.705 104.588Z" fill="#434A57"/>
<path d="M169.607 104.588C170.983 104.588 172.098 103.473 172.098 102.098C172.098 100.722 170.983 99.6074 169.607 99.6074C168.232 99.6074 167.117 100.722 167.117 102.098C167.117 103.473 168.232 104.588 169.607 104.588Z" fill="#434A57"/>
<path d="M194.51 104.588C195.885 104.588 197 103.473 197 102.098C197 100.722 195.885 99.6074 194.51 99.6074C193.134 99.6074 192.02 100.722 192.02 102.098C192.02 103.473 193.134 104.588 194.51 104.588Z" fill="#434A57"/>
<path d="M20.1953 129.49C21.5706 129.49 22.6855 128.375 22.6855 127C22.6855 125.625 21.5706 124.51 20.1953 124.51C18.82 124.51 17.7051 125.625 17.7051 127C17.7051 128.375 18.82 129.49 20.1953 129.49Z" fill="#434A57"/>
<path d="M45.0976 129.49C46.4729 129.49 47.5878 128.375 47.5878 127C47.5878 125.625 46.4729 124.51 45.0976 124.51C43.7223 124.51 42.6074 125.625 42.6074 127C42.6074 128.375 43.7223 129.49 45.0976 129.49Z" fill="#434A57"/>
<path d="M70 129.49C71.3753 129.49 72.4902 128.375 72.4902 127C72.4902 125.625 71.3753 124.51 70 124.51C68.6247 124.51 67.5098 125.625 67.5098 127C67.5098 128.375 68.6247 129.49 70 129.49Z" fill="#434A57"/>
<path d="M94.9023 129.49C96.2776 129.49 97.3925 128.375 97.3925 127C97.3925 125.625 96.2776 124.51 94.9023 124.51C93.527 124.51 92.4121 125.625 92.4121 127C92.4121 128.375 93.527 129.49 94.9023 129.49Z" fill="#434A57"/>
<path d="M119.805 129.49C121.18 129.49 122.295 128.375 122.295 127C122.295 125.625 121.18 124.51 119.805 124.51C118.429 124.51 117.314 125.625 117.314 127C117.314 128.375 118.429 129.49 119.805 129.49Z" fill="#434A57"/>
<path d="M144.705 129.49C146.08 129.49 147.195 128.375 147.195 127C147.195 125.625 146.08 124.51 144.705 124.51C143.33 124.51 142.215 125.625 142.215 127C142.215 128.375 143.33 129.49 144.705 129.49Z" fill="#434A57"/>
<path d="M169.607 129.49C170.983 129.49 172.098 128.375 172.098 127C172.098 125.625 170.983 124.51 169.607 124.51C168.232 124.51 167.117 125.625 167.117 127C167.117 128.375 168.232 129.49 169.607 129.49Z" fill="#434A57"/>
<path d="M194.51 129.49C195.885 129.49 197 128.375 197 127C197 125.625 195.885 124.51 194.51 124.51C193.134 124.51 192.02 125.625 192.02 127C192.02 128.375 193.134 129.49 194.51 129.49Z" fill="#434A57"/>
<path d="M20.1953 154.393C21.5706 154.393 22.6855 153.278 22.6855 151.902C22.6855 150.527 21.5706 149.412 20.1953 149.412C18.82 149.412 17.7051 150.527 17.7051 151.902C17.7051 153.278 18.82 154.393 20.1953 154.393Z" fill="#434A57"/>
<path d="M45.0976 154.393C46.4729 154.393 47.5878 153.278 47.5878 151.902C47.5878 150.527 46.4729 149.412 45.0976 149.412C43.7223 149.412 42.6074 150.527 42.6074 151.902C42.6074 153.278 43.7223 154.393 45.0976 154.393Z" fill="#434A57"/>
<path d="M70 154.393C71.3753 154.393 72.4902 153.278 72.4902 151.902C72.4902 150.527 71.3753 149.412 70 149.412C68.6247 149.412 67.5098 150.527 67.5098 151.902C67.5098 153.278 68.6247 154.393 70 154.393Z" fill="#434A57"/>
<path d="M94.9023 154.393C96.2776 154.393 97.3925 153.278 97.3925 151.902C97.3925 150.527 96.2776 149.412 94.9023 149.412C93.527 149.412 92.4121 150.527 92.4121 151.902C92.4121 153.278 93.527 154.393 94.9023 154.393Z" fill="#434A57"/>
<path d="M119.805 154.393C121.18 154.393 122.295 153.278 122.295 151.902C122.295 150.527 121.18 149.412 119.805 149.412C118.429 149.412 117.314 150.527 117.314 151.902C117.314 153.278 118.429 154.393 119.805 154.393Z" fill="#434A57"/>
<path d="M144.705 154.393C146.08 154.393 147.195 153.278 147.195 151.902C147.195 150.527 146.08 149.412 144.705 149.412C143.33 149.412 142.215 150.527 142.215 151.902C142.215 153.278 143.33 154.393 144.705 154.393Z" fill="#434A57"/>
<path d="M169.607 154.393C170.983 154.393 172.098 153.278 172.098 151.902C172.098 150.527 170.983 149.412 169.607 149.412C168.232 149.412 167.117 150.527 167.117 151.902C167.117 153.278 168.232 154.393 169.607 154.393Z" fill="#434A57"/>
<path d="M194.51 154.393C195.885 154.393 197 153.278 197 151.902C197 150.527 195.885 149.412 194.51 149.412C193.134 149.412 192.02 150.527 192.02 151.902C192.02 153.278 193.134 154.393 194.51 154.393Z" fill="#434A57"/>
<path d="M20.1953 179.294C21.5706 179.294 22.6855 178.179 22.6855 176.804C22.6855 175.428 21.5706 174.313 20.1953 174.313C18.82 174.313 17.7051 175.428 17.7051 176.804C17.7051 178.179 18.82 179.294 20.1953 179.294Z" fill="#434A57"/>
<path d="M45.0976 179.294C46.4729 179.294 47.5878 178.179 47.5878 176.804C47.5878 175.428 46.4729 174.313 45.0976 174.313C43.7223 174.313 42.6074 175.428 42.6074 176.804C42.6074 178.179 43.7223 179.294 45.0976 179.294Z" fill="#434A57"/>
<path d="M70 179.294C71.3753 179.294 72.4902 178.179 72.4902 176.804C72.4902 175.428 71.3753 174.313 70 174.313C68.6247 174.313 67.5098 175.428 67.5098 176.804C67.5098 178.179 68.6247 179.294 70 179.294Z" fill="#434A57"/>
<path d="M94.9023 179.294C96.2776 179.294 97.3925 178.179 97.3925 176.804C97.3925 175.428 96.2776 174.313 94.9023 174.313C93.527 174.313 92.4121 175.428 92.4121 176.804C92.4121 178.179 93.527 179.294 94.9023 179.294Z" fill="#434A57"/>
<path d="M119.805 179.294C121.18 179.294 122.295 178.179 122.295 176.804C122.295 175.428 121.18 174.313 119.805 174.313C118.429 174.313 117.314 175.428 117.314 176.804C117.314 178.179 118.429 179.294 119.805 179.294Z" fill="#434A57"/>
<path d="M144.705 179.294C146.08 179.294 147.195 178.179 147.195 176.804C147.195 175.428 146.08 174.313 144.705 174.313C143.33 174.313 142.215 175.428 142.215 176.804C142.215 178.179 143.33 179.294 144.705 179.294Z" fill="#434A57"/>
<path d="M169.607 179.294C170.983 179.294 172.098 178.179 172.098 176.804C172.098 175.428 170.983 174.313 169.607 174.313C168.232 174.313 167.117 175.428 167.117 176.804C167.117 178.179 168.232 179.294 169.607 179.294Z" fill="#434A57"/>
<path d="M194.51 179.294C195.885 179.294 197 178.179 197 176.804C197 175.428 195.885 174.313 194.51 174.313C193.134 174.313 192.02 175.428 192.02 176.804C192.02 178.179 193.134 179.294 194.51 179.294Z" fill="#434A57"/>
<path d="M20.1953 204.196C21.5706 204.196 22.6855 203.081 22.6855 201.706C22.6855 200.331 21.5706 199.216 20.1953 199.216C18.82 199.216 17.7051 200.331 17.7051 201.706C17.7051 203.081 18.82 204.196 20.1953 204.196Z" fill="#434A57"/>
<path d="M45.0976 204.196C46.4729 204.196 47.5878 203.081 47.5878 201.706C47.5878 200.331 46.4729 199.216 45.0976 199.216C43.7223 199.216 42.6074 200.331 42.6074 201.706C42.6074 203.081 43.7223 204.196 45.0976 204.196Z" fill="#434A57"/>
<path d="M70 204.196C71.3753 204.196 72.4902 203.081 72.4902 201.706C72.4902 200.331 71.3753 199.216 70 199.216C68.6247 199.216 67.5098 200.331 67.5098 201.706C67.5098 203.081 68.6247 204.196 70 204.196Z" fill="#434A57"/>
<path d="M94.9023 204.196C96.2776 204.196 97.3925 203.081 97.3925 201.706C97.3925 200.331 96.2776 199.216 94.9023 199.216C93.527 199.216 92.4121 200.331 92.4121 201.706C92.4121 203.081 93.527 204.196 94.9023 204.196Z" fill="#434A57"/>
<path d="M119.805 204.196C121.18 204.196 122.295 203.081 122.295 201.706C122.295 200.331 121.18 199.216 119.805 199.216C118.429 199.216 117.314 200.331 117.314 201.706C117.314 203.081 118.429 204.196 119.805 204.196Z" fill="#434A57"/>
<path d="M144.705 204.196C146.08 204.196 147.195 203.081 147.195 201.706C147.195 200.331 146.08 199.216 144.705 199.216C143.33 199.216 142.215 200.331 142.215 201.706C142.215 203.081 143.33 204.196 144.705 204.196Z" fill="#434A57"/>
<path d="M169.607 204.196C170.983 204.196 172.098 203.081 172.098 201.706C172.098 200.331 170.983 199.216 169.607 199.216C168.232 199.216 167.117 200.331 167.117 201.706C167.117 203.081 168.232 204.196 169.607 204.196Z" fill="#434A57"/>
<path d="M194.51 204.196C195.885 204.196 197 203.081 197 201.706C197 200.331 195.885 199.216 194.51 199.216C193.134 199.216 192.02 200.331 192.02 201.706C192.02 203.081 193.134 204.196 194.51 204.196Z" fill="#434A57"/>
<path d="M20.1953 229.098C21.5706 229.098 22.6855 227.983 22.6855 226.607C22.6855 225.232 21.5706 224.117 20.1953 224.117C18.82 224.117 17.7051 225.232 17.7051 226.607C17.7051 227.983 18.82 229.098 20.1953 229.098Z" fill="#434A57"/>
<path d="M45.0976 229.098C46.4729 229.098 47.5878 227.983 47.5878 226.607C47.5878 225.232 46.4729 224.117 45.0976 224.117C43.7223 224.117 42.6074 225.232 42.6074 226.607C42.6074 227.983 43.7223 229.098 45.0976 229.098Z" fill="#434A57"/>
<path d="M70 229.098C71.3753 229.098 72.4902 227.983 72.4902 226.607C72.4902 225.232 71.3753 224.117 70 224.117C68.6247 224.117 67.5098 225.232 67.5098 226.607C67.5098 227.983 68.6247 229.098 70 229.098Z" fill="#434A57"/>
<path d="M94.9023 229.098C96.2776 229.098 97.3925 227.983 97.3925 226.607C97.3925 225.232 96.2776 224.117 94.9023 224.117C93.527 224.117 92.4121 225.232 92.4121 226.607C92.4121 227.983 93.527 229.098 94.9023 229.098Z" fill="#434A57"/>
<path d="M119.805 229.098C121.18 229.098 122.295 227.983 122.295 226.607C122.295 225.232 121.18 224.117 119.805 224.117C118.429 224.117 117.314 225.232 117.314 226.607C117.314 227.983 118.429 229.098 119.805 229.098Z" fill="#434A57"/>
<path d="M144.705 229.098C146.08 229.098 147.195 227.983 147.195 226.607C147.195 225.232 146.08 224.117 144.705 224.117C143.33 224.117 142.215 225.232 142.215 226.607C142.215 227.983 143.33 229.098 144.705 229.098Z" fill="#434A57"/>
<path d="M169.607 229.098C170.983 229.098 172.098 227.983 172.098 226.607C172.098 225.232 170.983 224.117 169.607 224.117C168.232 224.117 167.117 225.232 167.117 226.607C167.117 227.983 168.232 229.098 169.607 229.098Z" fill="#434A57"/>
<path d="M194.51 229.098C195.885 229.098 197 227.983 197 226.607C197 225.232 195.885 224.117 194.51 224.117C193.134 224.117 192.02 225.232 192.02 226.607C192.02 227.983 193.134 229.098 194.51 229.098Z" fill="#434A57"/>
<path d="M20.1953 254C21.5706 254 22.6855 252.885 22.6855 251.51C22.6855 250.134 21.5706 249.02 20.1953 249.02C18.82 249.02 17.7051 250.134 17.7051 251.51C17.7051 252.885 18.82 254 20.1953 254Z" fill="#434A57"/>
<path d="M45.0976 254C46.4729 254 47.5878 252.885 47.5878 251.51C47.5878 250.134 46.4729 249.02 45.0976 249.02C43.7223 249.02 42.6074 250.134 42.6074 251.51C42.6074 252.885 43.7223 254 45.0976 254Z" fill="#434A57"/>
<path d="M70 254C71.3753 254 72.4902 252.885 72.4902 251.51C72.4902 250.134 71.3753 249.02 70 249.02C68.6247 249.02 67.5098 250.134 67.5098 251.51C67.5098 252.885 68.6247 254 70 254Z" fill="#434A57"/>
<path d="M94.9023 254C96.2776 254 97.3925 252.885 97.3925 251.51C97.3925 250.134 96.2776 249.02 94.9023 249.02C93.527 249.02 92.4121 250.134 92.4121 251.51C92.4121 252.885 93.527 254 94.9023 254Z" fill="#434A57"/>
<path d="M119.805 254C121.18 254 122.295 252.885 122.295 251.51C122.295 250.134 121.18 249.02 119.805 249.02C118.429 249.02 117.314 250.134 117.314 251.51C117.314 252.885 118.429 254 119.805 254Z" fill="#434A57"/>
<path d="M144.705 254C146.08 254 147.195 252.885 147.195 251.51C147.195 250.134 146.08 249.02 144.705 249.02C143.33 249.02 142.215 250.134 142.215 251.51C142.215 252.885 143.33 254 144.705 254Z" fill="#434A57"/>
<path d="M169.607 254C170.983 254 172.098 252.885 172.098 251.51C172.098 250.134 170.983 249.02 169.607 249.02C168.232 249.02 167.117 250.134 167.117 251.51C167.117 252.885 168.232 254 169.607 254Z" fill="#434A57"/>
<path d="M194.51 254C195.885 254 197 252.885 197 251.51C197 250.134 195.885 249.02 194.51 249.02C193.134 249.02 192.02 250.134 192.02 251.51C192.02 252.885 193.134 254 194.51 254Z" fill="#434A57"/>
</svg>
