<svg width="244" height="92" viewBox="0 0 244 92" fill="none" xmlns="http://www.w3.org/2000/svg">
<path d="M159.174 85.1161C159.357 85.1341 159.537 85.1071 159.582 84.9555C159.627 84.8039 159.608 84.5773 159.204 84.5563C158.8 84.5353 158.263 84.5713 158.126 84.5773C157.428 84.6073 156.98 84.5128 156.889 84.5773C156.799 84.6419 156.598 84.7664 156.799 84.8549C157.001 84.9435 157.518 84.7979 157.787 84.864C158.056 84.93 158.157 84.8489 158.126 85.0515C158.237 85.2016 158.906 85.089 159.174 85.1161Z" fill="white"/>
<path d="M167.133 84.5581C166.934 84.5895 165.975 84.6405 165.693 84.6405C165.411 84.6405 165.234 84.6255 164.963 84.624C164.256 84.624 163.999 84.4877 163.899 84.657C163.799 84.8263 163.859 84.8353 163.959 84.8862C164.101 84.9257 164.244 84.9537 164.388 84.9701C164.606 85.001 164.825 85.016 165.044 85.0151C165.164 85.0151 165.75 85.0315 165.93 85.0151C166.11 84.9986 166.428 85.0016 166.637 84.9701C166.846 84.9386 167.293 84.9297 167.372 84.8607C167.452 84.7918 167.572 84.7334 167.532 84.6495C167.492 84.5656 167.331 84.5281 167.133 84.5581Z" fill="white"/>
<path d="M169.759 84.4156C169.403 84.5175 169.355 84.5505 169.378 84.7394C169.396 84.8558 169.446 84.9574 169.518 85.0221C169.589 85.0867 169.676 85.109 169.759 85.0841C169.984 85.0526 170.141 85.0841 170.231 84.9132C170.321 84.7423 170.347 84.2493 169.759 84.4156Z" fill="white"/>
<path d="M111.459 85.2779L111.324 85.2914C111.249 85.3007 111.174 85.3007 111.099 85.2914C111.038 85.304 110.978 85.323 110.919 85.3483C110.403 85.5283 111.009 85.6257 111.009 85.6257L111.324 85.6122C111.639 85.5987 111.729 85.5987 111.908 85.5148C112.087 85.4308 112.065 85.3753 111.908 85.3124C111.76 85.2744 111.609 85.2628 111.459 85.2779Z" fill="white"/>
<path d="M133.587 84.7517C133.463 84.954 133.587 85.1727 133.774 85.1727C133.96 85.1727 134.007 85.3076 134.194 85.1727C134.38 85.0379 134.707 84.6677 133.961 84.6003C133.744 84.5808 133.712 84.5494 133.587 84.7517Z" fill="white"/>
<path d="M100.229 78.1073C100.771 78.6094 101.295 79.1564 101.815 79.6959C103.026 80.9698 104.346 81.2426 105.83 80.823C108.565 80.0511 111.318 79.3947 114.067 78.7248C116.887 78.0339 116.947 77.8255 115.697 74.2046C115.067 72.3822 114.136 71.5279 112.685 71.7437C111.355 71.943 110.015 72.0434 108.688 72.2638C106.104 72.7134 106.106 72.7329 106.752 69.2858C106.798 69.0813 106.834 68.8724 106.859 68.6608C106.954 67.4529 107.464 66.9898 108.3 66.8249C110.535 66.3858 112.76 65.8627 114.987 65.3397C117.667 64.7102 117.736 64.5288 116.717 60.9334C115.943 58.2027 115.25 57.6018 113.127 57.7951C112.097 57.888 111.06 57.8985 110.035 58.0544C109.276 58.1698 109.062 57.9045 109.306 56.8464C109.744 54.9655 110.212 53.0846 110.499 51.1512C110.775 49.3048 111.499 48.6903 112.78 48.5525C115.41 48.2692 118.033 47.8031 120.653 47.3685C121.253 47.271 121.89 47.1826 122.007 46.0196C122.379 42.3657 120.23 38.9187 117.224 39.0341C112.682 39.4237 107.824 40.5583 103.006 42.1065C102.28 42.3403 102.12 42.9113 102.027 43.764C100.961 53.5897 99.8867 63.4143 98.8046 73.2379C98.5752 75.2942 98.9622 76.9323 100.229 78.1073Z" fill="white"/>
<path d="M232.403 85.2236C232.391 85.2366 232.381 85.2534 232.374 85.2728C232.367 85.2922 232.363 85.3136 232.363 85.3352C232.363 85.3569 232.367 85.3783 232.374 85.3977C232.381 85.417 232.391 85.4339 232.403 85.4469C232.493 85.5742 232.764 85.5742 233.033 85.5592L233.303 85.5428C233.373 85.4978 233.434 85.4305 233.482 85.3465L233.527 85.2386C233.29 85.1144 233.035 85.0762 232.785 85.1277L232.403 85.2236Z" fill="white"/>
<path d="M170.723 84.3786L171.061 84.2648C171.109 84.2607 171.153 84.2317 171.187 84.1834C171.22 84.1352 171.239 84.0713 171.24 84.0044C171.24 83.7635 171.043 83.5555 170.723 83.6064C170.404 83.6572 170.258 83.6692 170.277 83.9206C170.296 84.172 170.391 84.4923 170.723 84.3786Z" fill="white"/>
<path d="M75.5266 79.952C76.6061 80.6699 77.7854 80.9367 78.941 81.3009C79.9916 81.6351 80.4901 81.0281 80.6723 79.5624C80.994 76.9831 81.4421 74.4352 81.7637 71.8559C81.9213 70.5925 82.3168 69.948 83.2452 69.6303C85.698 68.7775 88.0872 67.6007 90.3807 66.1158C93.6707 63.9996 96.7732 61.4937 99.1081 57.4847C99.9796 55.9859 100.511 54.3074 100.532 52.3471C100.546 45.2206 95.505 38.7896 90.1888 39.2542C86.1151 39.6094 82.4037 41.772 78.6923 43.9767C77.2483 44.8339 76.7133 46.1228 76.5322 48.1731C76.1269 52.7382 75.9018 57.3228 75.5931 61.8984C75.2714 66.6838 75.1578 71.5112 74.2927 76.2007C73.9496 78.0861 74.2562 79.1097 75.5266 79.952ZM83.8413 59.9995C84.4545 56.9781 85.0462 53.9477 85.6412 50.9188C85.7366 50.4302 85.8985 50.033 86.2598 49.8532C88.1058 48.9345 89.9862 48.2735 91.9662 48.6257C92.7349 48.7621 93.3749 49.2027 93.3598 50.5261C93.3481 51.764 92.931 52.7937 92.4068 53.7079C90.3185 57.3198 87.5055 59.3731 84.4298 60.8418C83.822 61.1326 83.674 60.8253 83.8456 59.9995H83.8413Z" fill="white"/>
<path d="M225.504 77.838C226.179 78.5394 226.872 79.2094 227.541 79.9273C228.554 81.0168 229.685 81.2371 230.908 80.9194C233.991 80.1191 237.079 79.3458 240.162 78.5469C242.306 77.9894 242.393 77.7496 241.516 74.9215C240.628 72.062 240.075 71.5449 237.829 71.7292C236.38 71.8491 234.935 72.074 233.49 72.2973C231.951 72.5356 231.955 72.5521 232.32 70.4988C233.833 62.0475 235.509 53.6606 237.544 45.4237C237.936 43.8305 237.645 42.7379 236.668 41.8762C235.06 40.4599 233.299 39.5846 231.459 39.0286C229.958 38.5685 229.422 39.0181 229.021 41.0983C228.372 44.451 227.735 47.8111 227.171 51.1937C225.897 58.7881 224.946 66.4816 224.325 74.2336C224.147 75.8118 224.646 76.9433 225.504 77.838Z" fill="white"/>
<path d="M206.615 77.8869C207.291 78.5823 207.985 79.2493 208.652 79.9657C209.67 81.0627 210.806 81.2246 212.024 80.9099C215.105 80.1125 218.188 79.3317 221.269 78.5359C223.306 78.0113 223.386 77.8 222.627 75.1383C222.557 74.891 222.469 74.6527 222.397 74.4054C221.803 72.3821 220.796 71.408 219.17 71.6912C217.618 71.97 216.05 72.0764 214.492 72.3057C213.045 72.52 213.013 72.5035 213.371 70.5522C214.918 62.1174 216.544 53.714 218.587 45.4816C219.042 43.6516 218.868 42.9247 217.679 41.8547C216.052 40.3889 214.249 39.5121 212.36 38.9921C211.033 38.6279 210.524 39.0655 210.137 40.8775C209.701 42.9247 209.319 44.996 208.958 47.0702C207.388 56.0026 206.12 65.0114 205.42 74.1476C205.199 75.7917 205.715 76.9622 206.615 77.8869Z" fill="white"/>
<path d="M120.211 76.4868C120.071 78.585 120.542 79.5412 122.008 80.1826C122.844 80.5498 123.723 80.7491 124.58 81.0159C125.558 81.3156 126.081 80.8001 126.275 79.3943C126.652 76.7191 127.093 74.0618 127.536 71.4061C127.627 70.8575 127.552 70.0572 127.976 69.8459C128.446 69.6136 128.643 70.4169 128.925 70.8006C131.143 73.8271 133.524 76.6109 136.047 79.1275C137.994 81.0758 140.065 81.0399 142.157 79.9263C143.597 79.1605 143.645 78.1728 142.479 76.8704C140.02 74.1353 137.789 71.0524 135.552 67.9785C135.098 67.3565 134.832 66.8949 135.659 66.3644C139.349 63.9814 143.029 61.5685 145.554 56.8115C145.875 56.2 146.069 56.5927 146.108 57.1218C146.151 57.7048 146.133 58.2968 146.159 58.8828C146.43 65.017 146.695 71.1498 147.496 77.2121C147.711 78.8502 148.309 79.8244 149.426 80.2096C150.687 80.6487 151.948 81.0998 153.225 81.4221C154.87 81.8387 155.282 81.4655 156.036 79.4033C157.551 75.2618 159.079 71.1313 160.621 67.0118C160.814 66.4978 160.905 65.7994 161.488 65.5925C161.54 66.0916 161.602 66.5068 161.622 66.9264C161.782 70.0737 162.12 73.1941 162.442 76.3159C162.632 78.1458 163.156 79.6026 164.536 80.1167C165.823 80.5992 167.109 81.1448 168.44 81.3996C170.283 81.7518 170.713 81.461 171.514 79.1515C175.232 68.4221 178.951 57.6943 183.168 47.3216C183.354 46.8555 183.504 46.3631 183.615 45.8529C184.01 44.0949 183.758 43.0053 182.708 41.9382C181.867 41.097 180.965 40.3821 180.016 39.8055C178.213 38.686 177.628 38.9497 176.72 41.3912C173.861 49.0746 171.109 56.83 168.465 64.6573C168.28 65.2014 168.216 65.8833 167.764 66.2085C167.49 65.8638 167.649 65.4771 167.668 65.1354C167.924 60.3905 168.18 55.647 168.46 50.8976C168.728 46.3324 168.641 46.1196 165.581 44.6868C162.188 43.0997 161.598 43.386 160.039 47.8986C158.077 53.5788 156.199 59.3129 154.272 65.017C154.089 65.5581 153.997 66.216 153.427 66.7675C153.427 64.9361 153.392 63.3549 153.433 61.7768C153.567 56.7036 153.755 51.6334 153.872 46.5602C153.947 43.3934 153.222 41.9472 151.05 40.964C149.882 40.4575 148.692 40.053 147.488 39.7531C146.342 39.4533 145.915 39.9299 145.869 41.571C145.816 43.4369 145.856 45.3088 145.856 47.3845C145.287 46.9184 145.152 46.271 144.932 45.7359C142.475 39.8235 138.799 37.9426 134.104 39.1281C131.21 39.8595 128.549 41.4616 125.815 42.8329C124.475 43.5058 123.766 44.7183 123.367 46.5153C122.709 49.4903 122.341 52.5461 121.997 55.6095C121.196 62.5486 120.676 69.5177 120.211 76.4868ZM129.707 59.755C130.338 56.7845 130.973 53.8141 131.584 50.8346C131.727 50.1422 132.028 49.7705 132.486 49.5127C133.852 48.7424 135.279 48.4247 136.81 48.3138C137.668 48.4726 138.804 48.2134 139.291 49.6296C139.75 50.965 139.037 52.1055 138.46 53.0677C136.287 56.6946 133.456 58.9607 130.313 60.5613C129.718 60.8656 129.525 60.6123 129.707 59.755V59.755Z" fill="white"/>
<path d="M179.34 75.4939C178.795 77.6535 179.038 78.5153 180.478 79.5194C181.304 80.0787 182.157 80.555 183.031 80.9447C183.826 81.3119 184.424 80.9447 184.802 79.8147C185.36 78.1151 185.994 76.4635 186.556 74.764C186.856 73.8528 187.306 73.4151 188.018 73.2113C190.76 72.4335 193.541 72.0603 196.305 71.5088C197.014 71.3589 197.27 71.6991 197.322 72.6613C197.41 74.3668 197.568 76.0634 197.675 77.7674C197.782 79.5075 198.473 80.4516 199.669 80.8098C200.679 81.1166 201.711 81.2535 202.744 81.2175C204.043 81.171 204.26 80.8698 204.262 79.0219C204.269 73.1948 204.269 67.3673 204.262 61.5393C204.408 55.8171 204.634 50.107 204.917 44.3999C205.031 42.0963 204.631 41.3185 203.165 40.719C200.664 39.7192 198.102 39.0499 195.511 38.7197C193.217 38.4065 191.752 39.6324 190.647 42.3766C188.035 48.8571 185.67 55.5099 183.409 62.2362C181.948 66.5885 180.487 70.9497 179.34 75.4939ZM190.663 63.7169C192.566 58.8116 194.464 53.9018 196.528 49.1238L196.878 49.2527C196.878 53.7099 196.871 58.1686 196.885 62.6273C196.885 63.4501 196.612 63.7529 196.068 63.8263C194.436 64.0391 192.806 64.2759 191.175 64.5157C190.739 64.5712 190.33 64.5847 190.663 63.7169Z" fill="white"/>
<path d="M18.1937 18.1647C17.2289 16.3827 16.6768 14.2245 15.5972 12.543L15.207 12.9281L17.8431 18.4869L18.1937 18.1647Z" fill="white"/>
<path d="M14.5646 48.8555C15.0545 48.9964 15.4115 48.7236 15.7342 47.9561C15.1682 47.7702 14.7694 47.8481 14.4477 48.3608C14.4198 48.3986 14.4001 48.4467 14.3908 48.4996C14.3815 48.5524 14.383 48.6078 14.3952 48.6594C14.4074 48.7111 14.4298 48.7569 14.4597 48.7915C14.4897 48.8262 14.526 48.8484 14.5646 48.8555Z" fill="white"/>
<path d="M44.9932 85.4191C44.7788 85.4551 44.5977 85.5165 44.5977 85.5855C44.5977 85.6545 44.7563 85.7505 44.9932 85.7655C45.2301 85.7804 45.4478 85.6815 45.4671 85.5915C45.4864 85.5015 45.2291 85.3786 44.9932 85.4191Z" fill="white"/>
<path d="M6.67406 35.0371C6.38997 35.1765 6.21094 35.4494 6.21094 35.6847C6.21094 35.9201 6.35888 36.2724 6.67406 36.0385C6.98924 35.8047 7.01068 35.8796 7.15755 35.5768L7.30549 35.277C7.30549 35.277 7.15755 34.8018 6.67406 35.0371Z" fill="white"/>
<path d="M53.2727 36.2155L53.6125 36.5544C53.6125 36.5544 53.8066 36.9609 54.0006 36.9609C54.1947 36.9609 54.4852 36.7584 54.2429 36.2829C54.0006 35.8075 54.0971 35.7399 53.515 35.605C53.3017 35.554 52.9329 35.8765 53.2727 36.2155Z" fill="white"/>
<path d="M38.0495 46.5349C37.6261 49.0827 37.1726 51.6305 36.7717 54.1784C36.3236 57.0349 37.1501 59.1826 38.7774 60.8312C40.0306 62.0991 41.4371 62.9294 42.894 63.6158C44.7905 64.515 45.5462 64.1074 46.3985 61.6135C47.7922 57.537 48.6766 53.2207 49.3294 48.8159C50.2342 42.7071 49.0893 38.6711 45.2654 35.4683C41.6612 32.4499 37.8898 29.9695 33.4859 30.6304C33.2715 30.6619 33.0056 30.8103 32.8684 30.4476C32.7612 30.1643 32.8759 29.935 32.9906 29.7117C33.666 28.9219 33.6789 28.5127 33.6789 28.1155C33.6789 27.6989 33.4398 27.8653 33.2307 27.8368C33.0935 27.8188 32.9831 28.2624 32.922 28.5697C32.7736 28.647 32.6302 28.7418 32.4932 28.8529C32.2155 29.0523 32.0644 28.8215 32.0344 29.1527C32.0043 29.4839 32.0344 29.6622 32.0344 30.7653C31.9857 30.9166 31.9012 31.0398 31.7952 31.1143C31.6892 31.1888 31.5681 31.21 31.4522 31.1744C31.3887 31.1612 31.327 31.1349 31.2689 31.0965C31.2486 30.6949 31.4694 29.7881 31.4694 29.7881L31.5594 29.5378C31.6484 29.289 31.5895 28.703 31.3804 28.4887C31.1714 28.2744 30.9023 28.739 30.9023 29.1467C30.9023 29.5543 30.6332 30.3292 30.6332 30.3292C30.6332 30.3292 30.7404 30.563 30.451 31.1939C30.2923 31.3948 30.0833 31.4562 29.7005 31.5087C29.6749 31.3302 29.6342 31.1567 29.5794 30.9916C29.4057 30.4835 29.2353 30.9511 29.0852 31.2014C28.978 31.3813 29.0198 31.7185 29.0552 32.0587C28.8912 32.4768 28.7228 32.913 28.3144 32.7901C28.1423 32.7435 27.9876 32.6128 27.8781 32.4214C27.6851 31.5102 27.5286 29.1122 27.5029 28.8634C27.4739 28.5637 27.3839 28.3209 27.2349 28.2864C27.0859 28.2519 26.9658 28.4048 26.8768 28.6971C26.7878 28.9893 26.8768 29.7462 26.8768 29.7462L26.9068 30.3352C26.9304 30.8088 27.044 31.6091 27.0537 32.2835C27.0147 32.4455 26.9395 32.5858 26.8393 32.6837C26.6656 32.847 26.5799 32.6717 26.492 32.4693C26.4864 32.3104 26.4962 32.1511 26.5209 31.9957C26.5906 31.6166 26.1328 31.5356 26.1328 31.5356L25.8938 31.6106C25.8627 31.6159 25.8328 31.6306 25.8062 31.6538C25.7797 31.677 25.757 31.7081 25.74 31.7448C25.7229 31.7815 25.7118 31.823 25.7074 31.8663C25.7031 31.9097 25.7056 31.9539 25.7147 31.9957L25.8337 32.1621C25.9077 32.267 25.9013 32.4708 25.8787 32.7091C25.6954 33.2487 25.6236 33.3086 25.4199 33.2801C25.3015 33.2604 25.1873 33.2064 25.0847 33.1215C24.9821 33.0366 24.8932 32.9227 24.8239 32.7871C24.8024 32.7511 24.7821 32.7121 24.7628 32.6732C24.4111 31.9448 23.0282 28.2819 23.0282 28.2819L22.6702 27.573C22.3121 26.8641 22.2821 27.1564 22.2821 27.1564L22.0591 27.3227C21.8361 27.4891 22.2231 28.1995 22.2231 28.1995L22.5211 28.7001C22.6946 29.0546 22.8539 29.4224 22.9982 29.8016C23.471 31.2014 23.9437 32.6837 24.4508 34.007C24.0027 34.3068 23.5932 32.4439 23.1376 32.4633C23.0057 32.6732 23.0304 32.9744 23.0775 33.1737C23.1547 33.5244 23.7111 34.1539 23.7347 34.5091C23.7486 34.7249 23.8269 34.8089 23.6146 34.9782C23.3488 35.2015 23.0357 35.3559 22.847 35.1686C22.7184 35.0397 22.4064 34.6725 22.2714 34.5061C20.9185 32.8395 19.2182 31.5446 17.9136 30.0099C17.771 29.8436 17.5748 29.941 17.4311 30.2692C17.5684 30.8957 18.0111 31.0815 18.3145 31.4682C19.3629 32.7991 20.5465 33.2427 21.4834 34.7654C21.7536 35.2045 22.2992 35.9869 22.0194 36.6088C21.7064 37.3042 21.224 36.9535 20.7791 36.8321C19.7349 36.5459 19.5677 35.6511 18.9566 35.2105C18.7958 35.0936 18.3134 34.9752 18.2405 35.3364C18.2126 35.4773 18.3241 36.0243 18.4399 36.1142C19.2397 36.7407 20.0276 37.0405 20.6687 37.3372C20.9731 37.4781 21.6807 37.9367 21.9969 38.2604C22.2006 38.4747 22.0977 38.5227 22.0473 38.8839C21.9776 39.3844 21.18 39.0158 20.6848 38.8644C19.602 38.5377 18.2748 38.0566 17.1931 37.7224C16.9991 37.6624 16.6947 37.595 16.6689 38.0671C16.6518 38.3758 16.8565 38.5167 17.0409 38.5871C17.3711 38.7145 18.1044 38.6995 18.4399 38.8C19.2246 39.0338 19.974 39.2181 20.748 39.5088C21.2025 39.6797 21.5703 39.918 21.4856 40.7213C21.4148 41.3987 20.718 41.1425 20.2838 41.2174C19.8957 41.2848 18.8376 40.3017 18.7776 41.5171C19.245 42.1421 19.9847 41.9233 20.4232 41.8828C20.7737 41.8513 21.1736 41.8064 21.3537 42.28C21.5295 42.7296 21.1586 43.0293 21.0235 43.3845C20.554 44.642 19.9461 45.7525 19.4155 46.959C19.26 46.4584 18.3488 47.4281 18.2984 47.7488C18.248 48.0696 18.3488 48.3978 18.8344 48.4457C18.6985 48.8553 18.5828 49.2775 18.4882 49.7092C16.8801 57.1278 17.995 62.8305 22.3732 67.6279C24.7017 70.1757 27.3046 72.1241 29.8292 74.2373C31.3697 75.5277 32.9584 76.7221 34.3382 78.3543C34.7101 78.7949 35.1668 79.297 35.0575 80.0688C34.9353 80.9216 34.3328 81.1179 33.83 81.3292C32.2895 81.9662 30.7929 81.4311 29.3157 80.8616C27.0516 79.9879 24.9589 78.5446 22.9264 76.9305C20.5936 75.078 18.1462 74.8323 15.6098 75.8814C13.961 76.5633 13.6533 78.041 14.8111 79.7676C15.3578 80.5829 15.9807 81.3037 16.5832 82.0441C22.0505 88.7554 28.3283 91.9477 35.631 90.2691C39.649 89.3459 43.0345 86.9105 45.0392 81.614C46.019 79.0272 45.9193 77.2677 44.5793 74.9776C43.6959 73.4699 42.5756 72.3534 41.4221 71.2893C38.2007 68.3173 34.6951 65.9538 31.7117 62.4708C29.7874 60.2227 29.246 57.7918 30.0736 54.4676C31.2443 49.7841 33.5438 46.3745 36.5594 43.8626C36.9464 43.5404 37.3666 43.1133 37.8351 43.5224C38.3036 43.9316 38.2039 44.648 38.1878 45.2774C38.1697 45.7017 38.1234 46.1226 38.0495 46.5349Z" fill="white"/>
<path d="M242.468 88.2736C242.039 88.3275 242.018 88.3155 241.95 88.4143C241.883 88.5131 241.884 88.555 242.085 88.5834C242.287 88.6119 242.827 88.6687 243.007 88.5834L243.186 88.4996C243.186 88.4996 243.254 88.1748 242.468 88.2736Z" fill="white"/>
<path d="M18.0579 46.8112C18.1651 46.8262 18.1715 46.9462 18.2884 46.8112L18.4063 46.6777C18.4063 46.6777 18.5403 46.6417 18.2884 46.1991C18.1093 45.8825 17.9582 45.899 17.8263 46.1991C17.6945 46.4991 17.9464 46.7977 18.0579 46.8112Z" fill="white"/>
<path d="M241.844 85.5292C241.709 85.4033 241.494 85.5442 241.269 85.703C241.044 85.8619 241.015 85.8439 240.722 85.8529L240.282 85.9324C240.266 85.9324 239.948 86.0822 239.932 86.0822C239.708 86.0343 239.228 86.2111 238.999 86.2321C238.356 86.2786 237.942 86.0822 237.82 86.6352C237.707 87.1268 237.489 87.1973 237.208 87.1988C236.927 87.2003 236.6 87.1448 236.689 86.6562C236.773 86.1976 236.456 85.787 235.704 85.715C235.361 85.6806 234.829 85.5442 234.366 85.7705C233.98 85.9593 231.728 86.1032 231.312 86.1392C226.997 86.5139 224.494 86.2156 220.176 86.2606C215.312 86.3115 210.474 85.718 205.63 85.3104C203.607 85.1395 201.573 84.594 199.571 84.2898L199.558 84.2643C199.558 84.2643 199.598 84.1863 199.558 83.999C199.519 83.8117 199.569 83.7217 199.389 83.6273C199.209 83.5329 198.802 83.4085 198.756 83.6603C198.711 83.9121 198.066 83.7532 197.969 84.0769C197.969 84.0769 197.456 84.0425 197.454 84.0514C196.433 83.9495 195.92 83.9151 194.894 83.8551C194.758 83.8461 191.653 83.5554 190.951 83.4939C190.249 83.4325 187.131 83.2676 186.877 83.3321C186.623 83.3965 186.755 83.7023 186.819 83.987L186.435 84.0305C186.066 83.9937 185.695 83.9887 185.326 84.0155C184.476 84.0904 181.128 83.996 180.628 83.993C180.129 83.99 178.496 83.8836 178.324 83.8087C178.151 83.7337 177.862 83.6378 177.862 83.6378L177.691 83.6063C177.529 83.5599 177.165 83.446 176.989 83.6063C176.86 83.7247 176.84 83.8641 176.765 83.9915C176.353 84.1105 175.947 84.2682 175.55 84.4636C174.693 84.8727 174.693 85.4423 175.423 86.5618C174.826 86.1437 174.029 86.4614 173.428 86.0088C173.428 85.9159 173.311 85.8949 173.255 85.8469C172.925 85.5682 173.244 84.9582 173.081 84.7978C173.002 84.7154 172.731 84.9132 172.531 84.7978C172.332 84.6824 172.278 84.4726 172.183 84.4156C171.994 84.3032 171.671 84.4321 171.562 84.546C171.454 84.6599 171.535 84.9237 171.657 85.0196C171.756 85.0976 171.848 85.1695 171.96 85.2669C173.129 86.1407 171.265 85.8095 171.065 85.7975C169.235 85.6821 167.42 86.0732 165.581 85.9084C161.244 85.5202 156.898 85.8259 152.547 85.6611L147.117 85.4842C146.724 85.4842 146.331 85.4842 145.937 85.4842L143.091 85.5157L142.953 85.5322L141.165 85.5772L138.514 85.6446C138.089 85.6556 137.665 85.6651 137.24 85.6731L135.096 85.6911C133.488 85.6911 131.89 85.6656 130.286 85.5727C126.582 85.3568 122.865 85.5187 119.155 85.5802C118.873 85.5802 118.594 85.5921 118.314 85.6251C117.474 85.5756 116.635 85.4168 116.543 85.6251L116.448 85.8544C116.448 85.8544 116.424 85.8949 116.854 86.0253C116.889 86.0358 116.915 86.0477 116.945 86.0582L116.884 86.0912C116.807 86.1362 116.726 86.1871 116.641 86.2411C116.567 86.2306 116.499 86.2246 116.448 86.2246C116.185 86.2246 115.54 86.0298 115.325 86.0268H115.11C115.084 86.0811 115.07 86.145 115.07 86.2104C115.07 86.2757 115.084 86.3396 115.11 86.394C115.193 86.5438 115.594 86.6577 115.841 86.6937C115.437 86.8646 115.005 86.941 114.59 86.7297C114.544 86.7057 114.498 86.6877 114.452 86.6682C114.539 86.1961 114.063 86.1392 113.809 86.0373C113.555 85.9353 110.248 86.4719 109.819 86.4329H109.771L109.714 86.4209C109.674 86.4134 109.635 86.4014 109.596 86.391C109.452 86.3587 109.316 86.2775 109.2 86.1544C109.084 86.0313 108.991 85.8701 108.93 85.6851C108.93 85.6851 108.795 85.3254 108.287 85.192C107.944 85.1306 107.598 85.0996 107.252 85.0991C106.84 85.0751 106.947 85.0646 106.758 85.3718C105.993 85.4033 105.225 85.3224 104.467 85.3014C104.393 85.1611 104.286 85.0623 104.165 85.0226C103.916 84.9072 102.896 84.9911 102.786 84.9911C102.676 84.9911 102.588 85.0061 102.29 85.0271C102.075 85.0421 101.987 85.1035 101.906 85.4363C101.645 85.4438 101.386 85.4468 101.125 85.4453C100.933 85.3559 100.736 85.2803 100.538 85.219C100.357 85.1785 99.451 85.2189 99.1754 85.21C98.8999 85.201 98.4583 85.0286 98.2932 85.3344C97.7668 85.3059 97.2415 85.2819 96.7173 85.2714L95.924 85.2609C95.8093 85.1995 95.7096 85.144 95.6463 85.1111C95.3987 84.9612 94.2688 85.0766 93.662 85.0436C93.0552 85.0106 92.6425 85.0766 92.3112 85.0436C91.98 85.0106 92.0968 85.2474 91.8706 85.2489H89.823C89.6301 85.159 89.436 85.2264 89.2774 85.0991C88.8636 84.7648 88.2053 85.0991 87.7337 85.0991C87.412 85.0991 87.0829 85.0616 86.712 85.225C86.0784 85.2145 85.4384 85.201 84.7824 85.1785C84.5251 85.1695 83.854 85.5052 83.5967 85.4947C83.3673 85.4857 82.6136 85.0931 82.3842 85.0811C81.6477 85.0451 81.3529 85.0226 80.6164 84.9657C78.02 84.7663 75.4064 85.0391 72.8013 85.0031C66.4946 84.9117 60.1899 84.7618 53.8843 84.6479C53.2775 84.6374 52.6793 84.7738 52.1754 85.3119C51.4111 86.1287 50.6392 86.926 49.7934 87.4101C49.6499 87.3641 49.504 87.334 49.3571 87.3202C49.2339 87.3164 49.1154 87.2534 49.0215 87.1418C49.0215 87.1418 48.8071 86.905 49.0215 86.878L49.2359 86.8511C49.2359 86.8511 49.7108 86.8226 49.7108 86.6847V86.5468C49.7108 86.5468 49.7945 86.3535 49.0344 86.4614C48.6141 86.5214 48.2486 86.0493 48.2089 86.4359C48.1692 86.8226 48.4458 87.1853 48.6377 87.2917L48.8253 87.4026C48.8253 87.4026 48.5455 87.5135 48.6356 87.7338C48.7256 87.9541 49.043 88.149 49.162 88.149H49.3324C49.609 88.8983 50.0206 89.5323 50.6842 89.5233C51.6019 89.5098 52.4938 89.7856 53.3868 89.9085C58.97 90.6773 64.5456 89.8995 70.1223 89.9744C71.4549 89.9924 73.0586 90.1138 74.4019 90.0733C74.9379 90.0583 75.3249 90.0014 75.6701 89.9489C75.5929 90.0402 75.5026 90.1072 75.4053 90.1453C74.9936 90.3611 74.5938 90.2172 74.1639 90.2951C73.734 90.3731 73.3738 90.5544 73.8616 90.5829C74.3268 90.6099 75.669 90.5829 76.1064 90.5829C76.5438 90.5829 76.5438 89.9669 77.5954 89.913C78.3255 89.9759 78.9462 90.0373 79.7063 90.0254C81.3143 90.0014 82.931 90.1752 84.5304 89.9789C86.3775 89.7541 88.185 90.7073 89.9978 90.2397C91.3303 89.8965 92.6553 89.9115 93.989 89.9145C99.2848 89.9294 104.577 89.6147 109.88 89.889C113.417 90.0763 116.983 89.871 120.531 89.8096C124.27 89.7451 127.996 89.9294 131.727 90.0433C135.129 90.1483 138.531 90.3326 141.935 90.409C149.239 90.5709 156.545 90.8137 163.852 90.5679C164.295 90.5529 164.991 90.8676 165.174 90.0793C165.344 89.3299 166.246 88.9882 166.49 89.6207C166.627 89.9681 166.821 90.2651 167.056 90.4873C167.291 90.7096 167.56 90.8507 167.841 90.8991C168.323 90.9606 171.76 91.2094 174.321 91.001C175.039 91.0145 175.821 91.013 175.921 91.067C176.079 91.1318 176.248 91.1081 176.393 91.001C176.456 90.9351 176.714 90.9246 176.487 90.8032C176.26 90.6818 176.354 90.6533 176.156 90.7103H176.141C176.19 90.6968 176.237 90.6818 176.283 90.6668C176.33 90.6518 176.352 90.6773 176.391 90.6803C176.563 90.6893 176.91 90.7073 177.051 90.6428C177.193 90.5784 177.507 90.493 177.428 90.3596C177.35 90.2262 177.382 90.1213 177.224 90.1617C177.181 90.173 177.137 90.1668 177.097 90.1438C177.104 90.1318 177.113 90.1198 177.119 90.1078C177.189 89.9384 177.655 89.919 177.801 89.9429C179.117 90.1558 180.073 90.0838 181.411 90.7043C182.112 91.0295 183.217 90.7448 184.044 90.8182C184.277 90.8392 184.706 90.5035 184.794 90.1513C185.223 88.4127 186.661 89.3015 186.768 89.4843C186.803 89.5639 186.834 89.6465 186.861 89.7316C186.861 89.7316 186.09 89.7901 185.914 89.7901C185.737 89.7901 185.539 89.7901 185.521 89.9699C185.503 90.1498 185.478 90.5694 185.772 90.6713C186.011 90.74 186.252 90.79 186.495 90.8212C186.521 90.8212 186.565 90.8362 186.616 90.8437C186.45 90.9523 186.274 91.0265 186.093 91.064C185.771 91.049 185.249 91.0145 185.099 91.0355C184.908 91.061 184.804 90.8991 184.706 91.07C184.609 91.2408 184.541 91.4117 184.706 91.4462C184.967 91.4876 185.228 91.5106 185.49 91.5151C185.537 91.5072 185.585 91.5144 185.629 91.5361C187.959 91.5361 190.288 91.5361 192.616 91.5361C200.076 91.5526 207.537 91.7009 214.996 91.5496C219.567 91.4566 224.145 91.9272 228.718 91.5616C229.674 91.7114 231.063 91.9527 231.374 91.9722C231.773 91.9962 232.032 92.0681 231.981 91.8223L231.928 91.5795H231.512C231.227 91.5432 230.945 91.4649 230.672 91.3457C231.352 91.2513 232.031 91.1359 232.709 90.9905C235.426 90.4105 238.772 90.2771 239.228 88.4532C239.247 88.3768 239.912 88.2839 240.286 88.1999C240.638 88.1205 240.663 87.8837 240.705 87.8387L240.965 87.5015C241.275 87.1388 241.286 87.2018 241.378 87.0669C241.471 86.932 241.655 86.4824 241.908 86.2456C242.079 86.0777 241.98 85.6551 241.844 85.5292ZM171.83 89.7916C172.242 90.3446 173.211 90.0224 173.775 90.2592C172.103 90.3026 170.547 90.6054 168.979 90.3461C168.675 90.2966 168.295 90.1962 168.294 89.6837C168.294 89.4604 168.595 89.2535 168.87 89.2535C169.376 89.2535 169.913 89.2535 170.469 89.2415C170.583 89.3434 170.719 89.4663 170.761 89.5173C170.906 89.6401 171.077 89.6868 171.244 89.6492C171.436 89.6117 171.827 89.5727 172.07 89.4049C172.142 89.3551 172.211 89.2986 172.277 89.2355C173.824 89.2445 175.436 89.303 176.927 89.5173C175.472 89.9459 173.383 89.7946 171.83 89.7916ZM179.969 86.5348C179.736 86.7162 179.197 86.5933 178.972 86.6337C178.801 86.6652 178.404 86.6203 178.231 86.6337C177.948 86.6532 177.678 86.4584 177.432 86.4164C176.889 86.3265 176.724 86.3984 176.724 85.8649C176.824 85.3104 177.423 85.4543 177.731 85.5352C177.895 85.5786 178.401 85.9234 178.54 85.9533C178.641 85.9743 179.612 85.9983 179.712 86.0193C179.933 86.0627 180.206 86.304 179.969 86.5348Z" fill="white"/>
<path d="M0.0420317 55.3384C0.386153 54.5888 0.733491 53.8512 0.624144 52.541C0.0313112 53.5844 -0.0748195 54.4209 0.0420317 55.3384Z" fill="white"/>
<path d="M38.7247 1.09524C39.0152 1.09524 39.2093 0.958812 39.2093 0.620014C39.2093 0.281215 39.3057 -0.26146 38.9188 0.144798C38.7204 0.353175 38.5307 0.281222 38.5307 0.552561C38.5307 0.8239 38.4353 1.09524 38.7247 1.09524Z" fill="white"/>
<path d="M49.4976 84.3127C49.34 84.3396 49.2993 84.2138 49.102 84.2573C48.7911 84.3247 48.4502 84.437 48.4695 84.5194C48.4888 84.6018 48.6475 84.6572 48.9841 84.6692C49.3207 84.6812 49.9489 84.6692 49.9489 84.5733C49.9489 84.4775 50.1633 84.4235 49.9489 84.3382C49.8025 84.2764 49.6472 84.2677 49.4976 84.3127Z" fill="white"/>
<path d="M49.7469 69.8392C50.1961 75.5523 52.3348 78.9814 56.3206 80.4201C57.5878 80.8698 58.8774 81.0526 60.18 81.1216C63.4539 81.246 66.1651 79.7622 68.0723 75.8445C69.0799 73.7629 69.9326 71.5428 70.6173 69.2187C72.9039 61.5317 74.1346 53.4221 75.5229 45.3755C75.6966 44.3684 75.5872 43.4062 74.9279 42.8022C73.2244 41.239 71.4277 39.9231 69.393 39.442C68.1398 39.1423 67.652 39.6893 67.3926 41.4234C66.3613 48.3175 65.4629 55.2686 63.9825 62.0233C63.1109 66.0039 62.3444 70.061 60.5348 73.4871C60.0342 74.4342 59.4628 75.4129 58.4647 75.0892C57.4527 74.758 57.2973 73.5215 57.1783 72.3405C56.8985 69.5919 57.2951 66.9062 57.6564 64.2324C58.3822 58.8655 59.5603 53.6694 60.7439 48.4764C61.4032 45.5838 61.0194 44.1585 59.1798 42.5309C57.983 41.4691 56.6762 40.6719 55.3054 40.1674C53.8518 39.6279 53.3458 39.9936 52.9244 41.9809C51.9993 46.3377 51.1524 50.7229 50.5274 55.1846C49.8499 60.0255 49.3578 64.8889 49.7469 69.8392Z" fill="white"/>
<path d="M29.6437 30.3038C29.7237 30.2781 29.7948 30.2142 29.8447 30.1231C29.8946 30.032 29.9202 29.9194 29.9171 29.8047C29.9171 29.6279 29.7949 29.5544 29.6437 29.5394C29.2985 29.505 29.1817 29.8632 29.2449 30.01C29.3082 30.1569 29.4143 30.4222 29.6437 30.3038Z" fill="white"/>
<path d="M26.7438 22.6581C26.9324 22.6581 27.0375 22.4827 27.0375 21.982C27.0375 21.4813 26.9957 20.3929 26.5326 20.6582C26.33 20.7752 26.2806 21.6581 26.3857 22.1873C26.4908 22.7165 26.554 22.6581 26.7438 22.6581Z" fill="white"/>
<path d="M34.378 18.7107C34.5259 18.5923 34.8164 18.0347 34.8196 17.4757C34.8196 17.0381 34.7328 16.8867 34.5259 16.8867C34.0199 16.8867 33.873 17.3873 33.873 18.1232C33.873 18.859 34.2311 18.8336 34.378 18.7107Z" fill="white"/>
<path d="M21.7118 30.0109H21.9262C21.9262 30.0109 22.2081 29.7334 21.9262 29.0691C21.7193 28.5832 21.6528 28.2157 21.3794 28.3042C21.1061 28.3927 20.7898 28.6866 20.9796 29.246C21.1693 29.8054 21.5059 30.0109 21.7118 30.0109Z" fill="white"/>
</svg>
