<svg width="145" height="140" viewBox="0 0 145 140" fill="none" xmlns="http://www.w3.org/2000/svg">
<rect opacity="0.03" width="145" height="140" rx="34" fill="white"/>
<g clip-path="url(#clip0)">
<path d="M49.6949 70C49.703 63.1554 51.9251 56.4952 56.0323 51.0052C60.1395 45.5153 65.9136 41.4873 72.5 39.5175C69.4806 38.5386 66.328 38.0268 63.1525 38C54.6252 38 46.447 41.3714 40.4173 47.3726C34.3875 53.3737 31 61.5131 31 70C31 78.4869 34.3875 86.6263 40.4173 92.6274C46.447 98.6286 54.6252 102 63.1525 102C66.3253 101.942 69.4732 101.431 72.5 100.482C65.9192 98.5034 60.151 94.473 56.0453 88.9851C51.9396 83.4973 49.7135 76.8421 49.6949 70V70Z" fill="#131925"/>
<path d="M81.5838 38C78.4087 38.0319 75.257 38.5436 72.2363 39.5175C78.8227 41.4873 84.5968 45.5153 88.704 51.0052C92.8113 56.4952 95.0334 63.1554 95.0414 70C95.0228 76.8421 92.7967 83.4973 88.691 88.9851C84.5853 94.473 78.8171 98.5034 72.2363 100.482C75.2646 101.425 78.4116 101.936 81.5838 102C90.1112 102 98.2893 98.6286 104.319 92.6274C110.349 86.6263 113.736 78.4869 113.736 70C113.736 61.5131 110.349 53.3737 104.319 47.3726C98.2893 41.3714 90.1112 38 81.5838 38V38Z" fill="#3A455A"/>
<path d="M95.3036 70.003C95.2955 63.1583 93.0734 56.4981 88.9662 51.0082C84.8589 45.5182 79.0848 41.4903 72.4985 39.5205C65.9121 41.4903 60.138 45.5182 56.0308 51.0082C51.9235 56.4981 49.7014 63.1583 49.6934 70.003C49.712 76.845 51.9381 83.5002 56.0438 88.9881C60.1495 94.476 65.9176 98.5064 72.4985 100.485C79.0793 98.5064 84.8474 94.476 88.9531 88.9881C93.0588 83.5002 95.285 76.845 95.3036 70.003V70.003Z" fill="#283042"/>
</g>
<defs>
<clipPath id="clip0">
<rect width="83" height="64" fill="white" transform="translate(31 38)"/>
</clipPath>
</defs>
</svg>
